<?xml version="1.0" encoding="UTF-8" standalone="no" ?>
<!DOCTYPE sesx>
<sesx version="1.9">

  <session appBuild="23.3.0.55" appVersion="23.3" audioChannelType="mono" bitDepth="32" duration="34657180" sampleRate="48000">
    <tracks>
      <audioTrack automationLaneOpenState="false" id="10001" index="1" select="true" visible="true">
        <trackParameters trackHeight="192" trackHue="160" trackMinimized="false">
          <name>Track 1</name>
        </trackParameters>
        <trackAudioParameters audioChannelType="mono" automationMode="1" monitoring="false" recordArmed="false" solo="false" soloSafe="false">
          <trackOutput outputID="10000" type="trackID"/>
          <trackInput inputID="1"/>
          <component componentGuid="2d969929-efaa-4ae5-8998-7c6ff45b0d20" componentID="Audition.Fader" id="trackFader" name="volume" powered="true">
            <parameter index="0" name="volume" parameterValue="1"/>
            <parameter index="1" name="static gain" parameterValue="1"/>
          </component>
          <component componentGuid="4035331b-eb5e-441c-b5ef-abe41cab26b6" componentID="Audition.Mute" id="trackMute" name="Mute" powered="true">
            <parameter index="0" parameterValue="0"/>
            <parameter index="1" name="mute" parameterValue="0"/>
          </component>
          <component componentGuid="f0541593-aee9-44c5-9b24-2dabea1ede83" componentID="Audition.StereoPanner" id="trackPan" name="StereoPanner" powered="true">
            <parameter index="0" name="Pan" parameterValue="0"/>
          </component>
          <component componentGuid="0e9ac8d8-3804-41f5-8aeb-559a73e41d86" componentID="Audition.EQ" id="trackEQ" name="EQ" powered="false">
            <parameter index="0" name="Low Shelf Frequency" parameterValue="0.000834028352983295917510986328125"/>
            <parameter index="1" name="Low Shelf Gain" parameterValue="0.5"/>
            <parameter index="2" name="High Shelf Frequency" parameterValue="0.74979150295257568359375"/>
            <parameter index="3" name="High Shelf Gain" parameterValue="0.5"/>
            <parameter index="4" name="EQ Band 1 Center Frequency" parameterValue="0.00125104258768260478973388671875"/>
            <parameter index="5" name="EQ Band 1 Q" parameterValue="0.000199989997781813144683837890625"/>
            <parameter index="6" name="EQ Band 1 Gain" parameterValue="0.5"/>
            <parameter index="7" name="EQ Band 1 Enable" parameterValue="1"/>
            <parameter index="8" name="EQ Band 2 Center Frequency" parameterValue="0.0075062550604343414306640625"/>
            <parameter index="9" name="EQ Band 2 Q" parameterValue="0.000199989997781813144683837890625"/>
            <parameter index="10" name="EQ Band 2 Gain" parameterValue="0.5"/>
            <parameter index="11" name="EQ Band 2 Enable" parameterValue="1"/>
            <parameter index="12" name="EQ Band 3 Center Frequency" parameterValue="0.0325271077454090118408203125"/>
            <parameter index="13" name="EQ Band 3 Q" parameterValue="0.000199989997781813144683837890625"/>
            <parameter index="14" name="EQ Band 3 Gain" parameterValue="0.5"/>
            <parameter index="15" name="EQ Band 3 Enable" parameterValue="1"/>
            <parameter index="16" name="EQ Band 4 Center Frequency" parameterValue="0.13261051476001739501953125"/>
            <parameter index="17" name="EQ Band 4 Q" parameterValue="0.000199989997781813144683837890625"/>
            <parameter index="18" name="EQ Band 4 Gain" parameterValue="0.5"/>
            <parameter index="19" name="EQ Band 4 Enable" parameterValue="1"/>
            <parameter index="20" name="EQ Band 5 Center Frequency" parameterValue="0.532944142818450927734375"/>
            <parameter index="21" name="EQ Band 5 Q" parameterValue="0.000199989997781813144683837890625"/>
            <parameter index="22" name="EQ Band 5 Gain" parameterValue="0.5"/>
            <parameter index="23" name="EQ Band 5 Enable" parameterValue="1"/>
            <parameter index="24" name="Gain" parameterValue="0.666666686534881591796875"/>
            <parameter index="25" name="ConstantQ" parameterValue="1"/>
            <parameter index="26" name="Low Shelf Filter Order" parameterValue="0"/>
            <parameter index="27" name="High Shelf Filter Order" parameterValue="0"/>
            <parameter index="28" name="Ultra-Quiet Mode" parameterValue="0"/>
            <parameter index="29" name="Low Shelf Enable" parameterValue="1"/>
            <parameter index="30" name="High Shelf Enable" parameterValue="1"/>
            <parameter index="31" name="Original Sample Rate" parameterValue="0.25"/>
            <parameter index="32" name="EQ Band 1 Bandwidth" parameterValue="0.002499990165233612060546875"/>
            <parameter index="33" name="EQ Band 2 Bandwidth" parameterValue="0.0099999904632568359375"/>
            <parameter index="34" name="EQ Band 3 Bandwidth" parameterValue="0.0399999916553497314453125"/>
            <parameter index="35" name="EQ Band 4 Bandwidth" parameterValue="0.15999998152256011962890625"/>
            <parameter index="36" name="EQ Band 5 Bandwidth" parameterValue="0.63999998569488525390625"/>
            <parameter index="37" name="High-Pass Filter Enable" parameterValue="0"/>
            <parameter index="38" name="High-Pass Cutoff Frequency" parameterValue="0"/>
            <parameter index="39" name="High-Pass Slope" parameterValue="0.4000000059604644775390625"/>
            <parameter index="40" name="Low-Pass Filter Enable" parameterValue="0"/>
            <parameter index="41" name="Low-Pass Cutoff Frequency" parameterValue="0.833194315433502197265625"/>
            <parameter index="42" name="Low-Pass Slope" parameterValue="0.4000000059604644775390625"/>
            <parameter index="43" name="Bypass" parameterValue="0"/>
            <parameter index="44" name="LowGraphRange" parameterValue="1"/>
          </component>
        </trackAudioParameters>
        <editParameter parameterIndex="0" slotIndex="4294967280"/>
        <audioClip clipAutoCrossfade="true" crossFadeHeadClipID="-1" crossFadeTailClipID="-1" endPoint="362073" fileID="0" hue="-1" id="0" lockedInTime="false" looped="false" name="Narrator 48000 1" offline="false" select="false" sourceInPoint="0" sourceOutPoint="362073" startPoint="0" zOrder="8">
          <component componentGuid="6b7d0e4e-9507-4dc4-b8cb-95418983b1c6" componentID="Audition.Fader" id="clipGain" name="volume" powered="true">
            <parameter index="0" name="volume" parameterValue="1"/>
            <parameter index="1" name="static gain" parameterValue="1"/>
          </component>
          <component componentGuid="58cbc8cb-85b3-4047-8dab-0140f294cf5b" componentID="Audition.Mute" id="clipMute" name="Mute" powered="true">
            <parameter index="0" parameterValue="0"/>
            <parameter index="1" name="mute" parameterValue="0"/>
          </component>
          <component id="clipPan" powered="true"/>
          <fadeIn crossFadeLinkType="linkedAsymmetric" endPoint="0" shape="19" startPoint="0" type="log"/>
          <fadeOut crossFadeLinkType="linkedAsymmetric" endPoint="362073" shape="19" startPoint="362073" type="log"/>
          <editParameter parameterIndex="0" slotIndex="4294967280"/>
          <channelMap>
            <channel index="0" sourceIndex="0"/>
          </channelMap>
        </audioClip>
        <audioClip clipAutoCrossfade="true" crossFadeHeadClipID="-1" crossFadeTailClipID="-1" endPoint="472431" fileID="0" hue="-1" id="1" lockedInTime="false" looped="false" name="Narrator 48000 1" offline="false" select="false" sourceInPoint="362073" sourceOutPoint="472431" startPoint="362073" zOrder="0">
          <component componentGuid="2a730a39-5942-4b48-9144-45b572f4ec28" componentID="Audition.Fader" id="clipGain" name="volume" powered="true">
            <parameter index="0" name="volume" parameterValue="1"/>
            <parameter index="1" name="static gain" parameterValue="1"/>
          </component>
          <component componentGuid="a589e055-a5d2-4146-857a-bc369fd47340" componentID="Audition.Mute" id="clipMute" name="Mute" powered="true">
            <parameter index="0" parameterValue="0"/>
            <parameter index="1" name="mute" parameterValue="0"/>
          </component>
          <component id="clipPan" powered="true"/>
          <fadeIn crossFadeLinkType="linkedAsymmetric" endPoint="0" shape="19" startPoint="0" type="log"/>
          <fadeOut crossFadeLinkType="linkedAsymmetric" endPoint="110358" shape="19" startPoint="110358" type="log"/>
          <editParameter parameterIndex="0" slotIndex="4294967280"/>
          <channelMap>
            <channel index="0" sourceIndex="0"/>
          </channelMap>
        </audioClip>
        <audioClip clipAutoCrossfade="true" crossFadeHeadClipID="-1" crossFadeTailClipID="-1" endPoint="737785" fileID="0" hue="-1" id="2" lockedInTime="false" looped="false" name="Narrator 48000 1" offline="false" select="false" sourceInPoint="472431" sourceOutPoint="737785" startPoint="472431" zOrder="1">
          <component componentGuid="9a130a1d-3fb6-4128-b841-d3e260f670f7" componentID="Audition.Fader" id="clipGain" name="volume" powered="true">
            <parameter index="0" name="volume" parameterValue="1"/>
            <parameter index="1" name="static gain" parameterValue="1"/>
          </component>
          <component componentGuid="51fdca02-0dc6-4827-ad67-e5f7346c109e" componentID="Audition.Mute" id="clipMute" name="Mute" powered="true">
            <parameter index="0" parameterValue="0"/>
            <parameter index="1" name="mute" parameterValue="0"/>
          </component>
          <component id="clipPan" powered="true"/>
          <fadeIn crossFadeLinkType="linkedAsymmetric" endPoint="0" shape="19" startPoint="0" type="log"/>
          <fadeOut crossFadeLinkType="linkedAsymmetric" endPoint="265354" shape="19" startPoint="265354" type="log"/>
          <editParameter parameterIndex="0" slotIndex="4294967280"/>
          <channelMap>
            <channel index="0" sourceIndex="0"/>
          </channelMap>
        </audioClip>
        <audioClip clipAutoCrossfade="true" crossFadeHeadClipID="-1" crossFadeTailClipID="-1" endPoint="837727" fileID="0" hue="-1" id="3" lockedInTime="false" looped="false" name="Narrator 48000 1" offline="false" select="false" sourceInPoint="737785" sourceOutPoint="837727" startPoint="737785" zOrder="2">
          <component componentGuid="6cac8eb9-a2f0-4491-8b22-ff4404b6ee16" componentID="Audition.Fader" id="clipGain" name="volume" powered="true">
            <parameter index="0" name="volume" parameterValue="1"/>
            <parameter index="1" name="static gain" parameterValue="1"/>
          </component>
          <component componentGuid="3108226c-9835-42dd-9651-41cbe41fb3ad" componentID="Audition.Mute" id="clipMute" name="Mute" powered="true">
            <parameter index="0" parameterValue="0"/>
            <parameter index="1" name="mute" parameterValue="0"/>
          </component>
          <component id="clipPan" powered="true"/>
          <fadeIn crossFadeLinkType="linkedAsymmetric" endPoint="0" shape="19" startPoint="0" type="log"/>
          <fadeOut crossFadeLinkType="linkedAsymmetric" endPoint="99942" shape="19" startPoint="99942" type="log"/>
          <editParameter parameterIndex="0" slotIndex="4294967280"/>
          <channelMap>
            <channel index="0" sourceIndex="0"/>
          </channelMap>
        </audioClip>
        <audioClip clipAutoCrossfade="true" crossFadeHeadClipID="-1" crossFadeTailClipID="-1" endPoint="935685" fileID="0" hue="-1" id="4" lockedInTime="false" looped="false" name="Narrator 48000 1" offline="false" select="false" sourceInPoint="837727" sourceOutPoint="935685" startPoint="837727" zOrder="3">
          <component componentGuid="aa4d557c-f3ac-4639-96cb-a55fbe8bfc58" componentID="Audition.Fader" id="clipGain" name="volume" powered="true">
            <parameter index="0" name="volume" parameterValue="1"/>
            <parameter index="1" name="static gain" parameterValue="1"/>
          </component>
          <component componentGuid="58eebd99-076d-4668-b422-41daef2b2cfe" componentID="Audition.Mute" id="clipMute" name="Mute" powered="true">
            <parameter index="0" parameterValue="0"/>
            <parameter index="1" name="mute" parameterValue="0"/>
          </component>
          <component id="clipPan" powered="true"/>
          <fadeIn crossFadeLinkType="linkedAsymmetric" endPoint="0" shape="19" startPoint="0" type="log"/>
          <fadeOut crossFadeLinkType="linkedAsymmetric" endPoint="97958" shape="19" startPoint="97958" type="log"/>
          <editParameter parameterIndex="0" slotIndex="4294967280"/>
          <channelMap>
            <channel index="0" sourceIndex="0"/>
          </channelMap>
        </audioClip>
        <audioClip clipAutoCrossfade="true" crossFadeHeadClipID="-1" crossFadeTailClipID="-1" endPoint="1012564" fileID="0" hue="-1" id="5" lockedInTime="false" looped="false" name="Narrator 48000 1" offline="false" select="false" sourceInPoint="935685" sourceOutPoint="1012564" startPoint="935685" zOrder="4">
          <component componentGuid="04241de3-bc06-4acb-815b-d5e165281b0c" componentID="Audition.Fader" id="clipGain" name="volume" powered="true">
            <parameter index="0" name="volume" parameterValue="1"/>
            <parameter index="1" name="static gain" parameterValue="1"/>
          </component>
          <component componentGuid="9a353636-09d2-4d71-ba3a-903504fee99b" componentID="Audition.Mute" id="clipMute" name="Mute" powered="true">
            <parameter index="0" parameterValue="0"/>
            <parameter index="1" name="mute" parameterValue="0"/>
          </component>
          <component id="clipPan" powered="true"/>
          <fadeIn crossFadeLinkType="linkedAsymmetric" endPoint="0" shape="19" startPoint="0" type="log"/>
          <fadeOut crossFadeLinkType="linkedAsymmetric" endPoint="76879" shape="19" startPoint="76879" type="log"/>
          <editParameter parameterIndex="0" slotIndex="4294967280"/>
          <channelMap>
            <channel index="0" sourceIndex="0"/>
          </channelMap>
        </audioClip>
        <audioClip clipAutoCrossfade="true" crossFadeHeadClipID="-1" crossFadeTailClipID="-1" endPoint="1116722" fileID="0" hue="-1" id="6" lockedInTime="false" looped="false" name="Narrator 48000 1" offline="false" select="false" sourceInPoint="1012564" sourceOutPoint="1116722" startPoint="1012564" zOrder="5">
          <component componentGuid="1017c04b-e79a-4424-b274-71a21e44ccfb" componentID="Audition.Fader" id="clipGain" name="volume" powered="true">
            <parameter index="0" name="volume" parameterValue="1"/>
            <parameter index="1" name="static gain" parameterValue="1"/>
          </component>
          <component componentGuid="e0407361-db5c-4233-b6fc-57e7b81218f8" componentID="Audition.Mute" id="clipMute" name="Mute" powered="true">
            <parameter index="0" parameterValue="0"/>
            <parameter index="1" name="mute" parameterValue="0"/>
          </component>
          <component id="clipPan" powered="true"/>
          <fadeIn crossFadeLinkType="linkedAsymmetric" endPoint="0" shape="19" startPoint="0" type="log"/>
          <fadeOut crossFadeLinkType="linkedAsymmetric" endPoint="104158" shape="19" startPoint="104158" type="log"/>
          <editParameter parameterIndex="0" slotIndex="4294967280"/>
          <channelMap>
            <channel index="0" sourceIndex="0"/>
          </channelMap>
        </audioClip>
        <audioClip clipAutoCrossfade="true" crossFadeHeadClipID="-1" crossFadeTailClipID="-1" endPoint="4249930" fileID="0" hue="-1" id="7" lockedInTime="false" looped="false" name="Narrator 48000 1" offline="false" select="false" sourceInPoint="1116722" sourceOutPoint="4249930" startPoint="1116722" zOrder="6">
          <component componentGuid="0a03eedb-8a56-4165-82c8-15358dcfa78d" componentID="Audition.Fader" id="clipGain" name="volume" powered="true">
            <parameter index="0" name="volume" parameterValue="1"/>
            <parameter index="1" name="static gain" parameterValue="1"/>
          </component>
          <component componentGuid="e00cec48-9ef4-4259-823f-82ce7605290e" componentID="Audition.Mute" id="clipMute" name="Mute" powered="true">
            <parameter index="0" parameterValue="0"/>
            <parameter index="1" name="mute" parameterValue="0"/>
          </component>
          <component id="clipPan" powered="true"/>
          <fadeIn crossFadeLinkType="linkedAsymmetric" endPoint="0" shape="19" startPoint="0" type="log"/>
          <fadeOut crossFadeLinkType="linkedAsymmetric" endPoint="3133208" shape="19" startPoint="3133208" type="log"/>
          <editParameter parameterIndex="0" slotIndex="4294967280"/>
          <channelMap>
            <channel index="0" sourceIndex="0"/>
          </channelMap>
        </audioClip>
        <audioClip clipAutoCrossfade="true" crossFadeHeadClipID="-1" crossFadeTailClipID="-1" endPoint="5370496" fileID="0" hue="-1" id="8" lockedInTime="false" looped="false" name="Narrator 48000 1" offline="false" select="false" sourceInPoint="4249930" sourceOutPoint="5370496" startPoint="4249930" zOrder="7">
          <component componentGuid="9969533d-a7bc-408b-b4ad-89a5f7a57b63" componentID="Audition.Fader" id="clipGain" name="volume" powered="true">
            <parameter index="0" name="volume" parameterValue="1"/>
            <parameter index="1" name="static gain" parameterValue="1"/>
          </component>
          <component componentGuid="9ed6d25c-b9a7-42b5-a42c-0ad1b4b8f48e" componentID="Audition.Mute" id="clipMute" name="Mute" powered="true">
            <parameter index="0" parameterValue="0"/>
            <parameter index="1" name="mute" parameterValue="0"/>
          </component>
          <component id="clipPan" powered="true"/>
          <fadeIn crossFadeLinkType="linkedAsymmetric" endPoint="0" shape="19" startPoint="0" type="log"/>
          <fadeOut crossFadeLinkType="linkedAsymmetric" endPoint="1120566" shape="19" startPoint="1120566" type="log"/>
          <editParameter parameterIndex="0" slotIndex="4294967280"/>
          <channelMap>
            <channel index="0" sourceIndex="0"/>
          </channelMap>
        </audioClip>
        <audioClip clipAutoCrossfade="true" crossFadeHeadClipID="-1" crossFadeTailClipID="-1" endPoint="6198580" fileID="1" hue="-1" id="9" lockedInTime="false" looped="false" name="Narrator_Studio 48000 2" offline="false" select="false" sourceInPoint="0" sourceOutPoint="764624" startPoint="5433956" zOrder="9">
          <component componentGuid="b3055813-9054-40bb-bea6-e28b0b2b7792" componentID="Audition.Fader" id="clipGain" name="volume" powered="true">
            <parameter index="0" name="volume" parameterValue="1"/>
            <parameter index="1" name="static gain" parameterValue="1"/>
          </component>
          <component componentGuid="1565dc3e-4b2b-4968-a409-fb4452d8e6b0" componentID="Audition.Mute" id="clipMute" name="Mute" powered="true">
            <parameter index="0" parameterValue="0"/>
            <parameter index="1" name="mute" parameterValue="0"/>
          </component>
          <component id="clipPan" powered="true"/>
          <fadeIn crossFadeLinkType="linkedAsymmetric" endPoint="0" shape="19" startPoint="0" type="log"/>
          <fadeOut crossFadeLinkType="linkedAsymmetric" endPoint="764624" shape="19" startPoint="764624" type="log"/>
          <editParameter parameterIndex="0" slotIndex="4294967280"/>
          <channelMap>
            <channel index="0" sourceIndex="0"/>
          </channelMap>
        </audioClip>
        <audioClip clipAutoCrossfade="true" crossFadeHeadClipID="-1" crossFadeTailClipID="-1" endPoint="6599198" fileID="1" hue="-1" id="10" lockedInTime="false" looped="false" name="Narrator_Studio 48000 2" offline="false" select="false" sourceInPoint="764624" sourceOutPoint="1165242" startPoint="6198580" zOrder="10">
          <component componentGuid="0ef1dc27-00b9-488c-b7a5-10d7a0aeaf9f" componentID="Audition.Fader" id="clipGain" name="volume" powered="true">
            <parameter index="0" name="volume" parameterValue="1"/>
            <parameter index="1" name="static gain" parameterValue="1"/>
          </component>
          <component componentGuid="96136020-7fe0-4dad-8c77-57da04c3d241" componentID="Audition.Mute" id="clipMute" name="Mute" powered="true">
            <parameter index="0" parameterValue="0"/>
            <parameter index="1" name="mute" parameterValue="0"/>
          </component>
          <component id="clipPan" powered="true"/>
          <fadeIn crossFadeLinkType="linkedAsymmetric" endPoint="0" shape="19" startPoint="0" type="log"/>
          <fadeOut crossFadeLinkType="linkedAsymmetric" endPoint="400618" shape="19" startPoint="400618" type="log"/>
          <editParameter parameterIndex="0" slotIndex="4294967280"/>
          <channelMap>
            <channel index="0" sourceIndex="0"/>
          </channelMap>
        </audioClip>
        <audioClip clipAutoCrossfade="true" crossFadeHeadClipID="-1" crossFadeTailClipID="-1" endPoint="7832663" fileID="1" hue="-1" id="11" lockedInTime="false" looped="false" name="Narrator_Studio 48000 2" offline="false" select="false" sourceInPoint="1165242" sourceOutPoint="2398707" startPoint="6599198" zOrder="11">
          <component componentGuid="8887fe1e-b958-4157-83ff-39f8a9780e3a" componentID="Audition.Fader" id="clipGain" name="volume" powered="true">
            <parameter index="0" name="volume" parameterValue="1"/>
            <parameter index="1" name="static gain" parameterValue="1"/>
          </component>
          <component componentGuid="764a666e-c633-4a28-963a-fffdc7f096e8" componentID="Audition.Mute" id="clipMute" name="Mute" powered="true">
            <parameter index="0" parameterValue="0"/>
            <parameter index="1" name="mute" parameterValue="0"/>
          </component>
          <component id="clipPan" powered="true"/>
          <fadeIn crossFadeLinkType="linkedAsymmetric" endPoint="0" shape="19" startPoint="0" type="log"/>
          <fadeOut crossFadeLinkType="linkedAsymmetric" endPoint="1233465" shape="19" startPoint="1233465" type="log"/>
          <editParameter parameterIndex="0" slotIndex="4294967280"/>
          <channelMap>
            <channel index="0" sourceIndex="0"/>
          </channelMap>
        </audioClip>
        <audioClip clipAutoCrossfade="true" crossFadeHeadClipID="-1" crossFadeTailClipID="-1" endPoint="8094021" fileID="1" hue="-1" id="12" lockedInTime="false" looped="false" name="Narrator_Studio 48000 2" offline="false" select="false" sourceInPoint="2398707" sourceOutPoint="2636706" startPoint="7856022" zOrder="15">
          <component componentGuid="e7bbfc5f-d7e8-466a-afd1-82186bac93bf" componentID="Audition.Fader" id="clipGain" name="volume" powered="true">
            <parameter index="0" name="volume" parameterValue="1"/>
            <parameter index="1" name="static gain" parameterValue="1"/>
          </component>
          <component componentGuid="60d9047e-3df4-4b11-a0ed-269b77944678" componentID="Audition.Mute" id="clipMute" name="Mute" powered="true">
            <parameter index="0" parameterValue="0"/>
            <parameter index="1" name="mute" parameterValue="0"/>
          </component>
          <component id="clipPan" powered="true"/>
          <fadeIn crossFadeLinkType="linkedAsymmetric" endPoint="0" shape="19" startPoint="0" type="log"/>
          <fadeOut crossFadeLinkType="linkedAsymmetric" endPoint="237999" shape="19" startPoint="237999" type="log"/>
          <editParameter parameterIndex="0" slotIndex="4294967280"/>
          <channelMap>
            <channel index="0" sourceIndex="0"/>
          </channelMap>
        </audioClip>
        <audioClip clipAutoCrossfade="true" crossFadeHeadClipID="-1" crossFadeTailClipID="14" endPoint="8579490" fileID="1" hue="-1" id="13" lockedInTime="false" looped="false" name="Narrator_Studio 48000 2" offline="false" select="false" sourceInPoint="2660065" sourceOutPoint="3145534" startPoint="8094021" zOrder="14">
          <component componentGuid="b59dae52-1853-4cc3-ba65-5248d8d183e5" componentID="Audition.Fader" id="clipGain" name="volume" powered="true">
            <parameter index="0" name="volume" parameterValue="1"/>
            <parameter index="1" name="static gain" parameterValue="1"/>
          </component>
          <component componentGuid="65e9c35e-30c0-4fc1-8c0b-b2038478d8b9" componentID="Audition.Mute" id="clipMute" name="Mute" powered="true">
            <parameter index="0" parameterValue="0"/>
            <parameter index="1" name="mute" parameterValue="0"/>
          </component>
          <component id="clipPan" powered="true"/>
          <fadeIn crossFadeLinkType="linkedAsymmetric" endPoint="0" shape="19" startPoint="0" type="log"/>
          <fadeOut crossFadeLinkType="linkedAsymmetric" endPoint="485469" shape="19" startPoint="483782" type="log"/>
          <editParameter parameterIndex="0" slotIndex="4294967280"/>
          <channelMap>
            <channel index="0" sourceIndex="0"/>
          </channelMap>
        </audioClip>
        <audioClip clipAutoCrossfade="true" crossFadeHeadClipID="13" crossFadeTailClipID="-1" endPoint="8626437" fileID="1" hue="-1" id="14" lockedInTime="false" looped="false" name="Narrator_Studio 48000 2" offline="false" select="false" sourceInPoint="3169850" sourceOutPoint="3218484" startPoint="8577803" zOrder="16">
          <component componentGuid="e9f4ee7c-d0e8-43ae-a80f-b0d55d83dcf8" componentID="Audition.Fader" id="clipGain" name="volume" powered="true">
            <parameter index="0" name="volume" parameterValue="1"/>
            <parameter index="1" name="static gain" parameterValue="1"/>
          </component>
          <component componentGuid="dedde26f-bb92-4a97-a902-ef57a9e6d878" componentID="Audition.Mute" id="clipMute" name="Mute" powered="true">
            <parameter index="0" parameterValue="0"/>
            <parameter index="1" name="mute" parameterValue="0"/>
          </component>
          <component id="clipPan" powered="true"/>
          <fadeIn crossFadeLinkType="linkedAsymmetric" endPoint="1687" shape="18" startPoint="0" type="log"/>
          <fadeOut crossFadeLinkType="linkedAsymmetric" endPoint="48634" shape="19" startPoint="48634" type="log"/>
          <editParameter parameterIndex="0" slotIndex="4294967280"/>
          <channelMap>
            <channel index="0" sourceIndex="0"/>
          </channelMap>
        </audioClip>
        <audioClip clipAutoCrossfade="true" crossFadeHeadClipID="-1" crossFadeTailClipID="-1" endPoint="9059441" fileID="1" hue="-1" id="15" lockedInTime="false" looped="false" name="Narrator_Studio 48000 2" offline="false" select="false" sourceInPoint="3218484" sourceOutPoint="3625485" startPoint="8652440" zOrder="12">
          <component componentGuid="dd8d1bf8-9fb4-4cfb-b621-f860ba313754" componentID="Audition.Fader" id="clipGain" name="volume" powered="true">
            <parameter index="0" name="volume" parameterValue="1"/>
            <parameter index="1" name="static gain" parameterValue="1"/>
          </component>
          <component componentGuid="3d33e082-401b-49e2-a3d3-f736f87fc8ae" componentID="Audition.Mute" id="clipMute" name="Mute" powered="true">
            <parameter index="0" parameterValue="0"/>
            <parameter index="1" name="mute" parameterValue="0"/>
          </component>
          <component id="clipPan" powered="true"/>
          <fadeIn crossFadeLinkType="linkedAsymmetric" endPoint="0" shape="19" startPoint="0" type="log"/>
          <fadeOut crossFadeLinkType="linkedAsymmetric" endPoint="407001" shape="19" startPoint="407001" type="log"/>
          <editParameter parameterIndex="0" slotIndex="4294967280"/>
          <channelMap>
            <channel index="0" sourceIndex="0"/>
          </channelMap>
        </audioClip>
        <audioClip clipAutoCrossfade="true" crossFadeHeadClipID="-1" crossFadeTailClipID="-1" endPoint="9818827" fileID="1" hue="-1" id="16" lockedInTime="false" looped="false" name="Narrator_Studio 48000 2" offline="false" select="false" sourceInPoint="3982940" sourceOutPoint="4742326" startPoint="9059441" zOrder="17">
          <component componentGuid="2dd7150d-6cd6-4817-ab48-6ed9cd21368c" componentID="Audition.Fader" id="clipGain" name="volume" powered="true">
            <parameter index="0" name="volume" parameterValue="1"/>
            <parameter index="1" name="static gain" parameterValue="1"/>
          </component>
          <component componentGuid="afd40c34-80fb-4d8c-a401-3153f3e63266" componentID="Audition.Mute" id="clipMute" name="Mute" powered="true">
            <parameter index="0" parameterValue="0"/>
            <parameter index="1" name="mute" parameterValue="0"/>
          </component>
          <component id="clipPan" powered="true"/>
          <fadeIn crossFadeLinkType="linkedAsymmetric" endPoint="0" shape="19" startPoint="0" type="log"/>
          <fadeOut crossFadeLinkType="linkedAsymmetric" endPoint="759386" shape="19" startPoint="759386" type="log"/>
          <editParameter parameterIndex="0" slotIndex="4294967280"/>
          <channelMap>
            <channel index="0" sourceIndex="0"/>
          </channelMap>
        </audioClip>
        <audioClip clipAutoCrossfade="true" crossFadeHeadClipID="-1" crossFadeTailClipID="-1" endPoint="10947014" fileID="1" hue="-1" id="17" lockedInTime="false" looped="false" name="Narrator_Studio 48000 2" offline="false" select="false" sourceInPoint="4742326" sourceOutPoint="5513058" startPoint="10176282" zOrder="13">
          <component componentGuid="75d34956-57f0-4ce5-8579-717a8716e817" componentID="Audition.Fader" id="clipGain" name="volume" powered="true">
            <parameter index="0" name="volume" parameterValue="1"/>
            <parameter index="1" name="static gain" parameterValue="1"/>
          </component>
          <component componentGuid="4b2baf9c-6eaa-4a83-858c-d7c0f8a4bbc5" componentID="Audition.Mute" id="clipMute" name="Mute" powered="true">
            <parameter index="0" parameterValue="0"/>
            <parameter index="1" name="mute" parameterValue="0"/>
          </component>
          <component id="clipPan" powered="true"/>
          <fadeIn crossFadeLinkType="linkedAsymmetric" endPoint="0" shape="19" startPoint="0" type="log"/>
          <fadeOut crossFadeLinkType="linkedAsymmetric" endPoint="770732" shape="19" startPoint="770732" type="log"/>
          <editParameter parameterIndex="0" slotIndex="4294967280"/>
          <channelMap>
            <channel index="0" sourceIndex="0"/>
          </channelMap>
        </audioClip>
        <audioClip clipAutoCrossfade="true" crossFadeHeadClipID="-1" crossFadeTailClipID="-1" endPoint="11063754" fileID="1" hue="-1" id="18" lockedInTime="false" looped="false" name="Narrator_Studio 48000 2" offline="false" select="false" sourceInPoint="6284166" sourceOutPoint="6400906" startPoint="10947014" zOrder="18">
          <component componentGuid="271aca22-f9f5-4220-a589-19f4100d952e" componentID="Audition.Fader" id="clipGain" name="volume" powered="true">
            <parameter index="0" name="volume" parameterValue="1"/>
            <parameter index="1" name="static gain" parameterValue="1"/>
          </component>
          <component componentGuid="db044fb8-4f2d-41c5-a8fc-83f39c7fba38" componentID="Audition.Mute" id="clipMute" name="Mute" powered="true">
            <parameter index="0" parameterValue="0"/>
            <parameter index="1" name="mute" parameterValue="0"/>
          </component>
          <component id="clipPan" powered="true"/>
          <fadeIn crossFadeLinkType="linkedAsymmetric" endPoint="0" shape="19" startPoint="0" type="log"/>
          <fadeOut crossFadeLinkType="linkedAsymmetric" endPoint="116740" shape="19" startPoint="116740" type="log"/>
          <editParameter parameterIndex="0" slotIndex="4294967280"/>
          <channelMap>
            <channel index="0" sourceIndex="0"/>
          </channelMap>
        </audioClip>
        <audioClip clipAutoCrossfade="true" crossFadeHeadClipID="-1" crossFadeTailClipID="-1" endPoint="12000000" fileID="1" hue="-1" id="19" lockedInTime="false" looped="false" name="Narrator_Studio 48000 2" offline="false" select="false" sourceInPoint="5513058" sourceOutPoint="6284166" startPoint="11228892" zOrder="19">
          <component componentGuid="29d6642d-804a-4e88-96f1-6bc285c23649" componentID="Audition.Fader" id="clipGain" name="volume" powered="true">
            <parameter index="0" name="volume" parameterValue="1"/>
            <parameter index="1" name="static gain" parameterValue="1"/>
          </component>
          <component componentGuid="ac5fa1a9-6925-49a5-b884-1f14dbf2a77e" componentID="Audition.Mute" id="clipMute" name="Mute" powered="true">
            <parameter index="0" parameterValue="0"/>
            <parameter index="1" name="mute" parameterValue="0"/>
          </component>
          <component id="clipPan" powered="true"/>
          <fadeIn crossFadeLinkType="linkedAsymmetric" endPoint="0" shape="19" startPoint="0" type="log"/>
          <fadeOut crossFadeLinkType="linkedAsymmetric" endPoint="771108" shape="19" startPoint="771108" type="log"/>
          <editParameter parameterIndex="0" slotIndex="4294967280"/>
          <channelMap>
            <channel index="0" sourceIndex="0"/>
          </channelMap>
        </audioClip>
        <audioClip clipAutoCrossfade="true" crossFadeHeadClipID="-1" crossFadeTailClipID="-1" endPoint="13183430" fileID="2" hue="-1" id="20" lockedInTime="false" looped="false" name="Narrator_BSOD 48000 1" offline="false" select="false" sourceInPoint="0" sourceOutPoint="386774" startPoint="12796656" zOrder="20">
          <component componentGuid="40c368ec-3fb3-4595-b11c-35dfc29ae11e" componentID="Audition.Fader" id="clipGain" name="volume" powered="true">
            <parameter index="0" name="volume" parameterValue="1"/>
            <parameter index="1" name="static gain" parameterValue="1"/>
          </component>
          <component componentGuid="4b0f88ad-9a04-46fe-affb-55fd8c6deac8" componentID="Audition.Mute" id="clipMute" name="Mute" powered="true">
            <parameter index="0" parameterValue="0"/>
            <parameter index="1" name="mute" parameterValue="0"/>
          </component>
          <component id="clipPan" powered="true"/>
          <fadeIn crossFadeLinkType="linkedAsymmetric" endPoint="0" shape="19" startPoint="0" type="log"/>
          <fadeOut crossFadeLinkType="linkedAsymmetric" endPoint="386774" shape="19" startPoint="386774" type="log"/>
          <editParameter parameterIndex="0" slotIndex="4294967280"/>
          <channelMap>
            <channel index="0" sourceIndex="0"/>
          </channelMap>
        </audioClip>
        <audioClip clipAutoCrossfade="true" crossFadeHeadClipID="-1" crossFadeTailClipID="-1" endPoint="13371383" fileID="2" hue="-1" id="21" lockedInTime="false" looped="false" name="Narrator_BSOD 48000 1" offline="false" select="false" sourceInPoint="420742" sourceOutPoint="574727" startPoint="13217398" zOrder="21">
          <component componentGuid="f769370c-c1e6-45bf-8b81-c1067fad4c31" componentID="Audition.Fader" id="clipGain" name="volume" powered="true">
            <parameter index="0" name="volume" parameterValue="1"/>
            <parameter index="1" name="static gain" parameterValue="1"/>
          </component>
          <component componentGuid="9e07a139-d381-40a1-a30a-bb225badfe74" componentID="Audition.Mute" id="clipMute" name="Mute" powered="true">
            <parameter index="0" parameterValue="0"/>
            <parameter index="1" name="mute" parameterValue="0"/>
          </component>
          <component id="clipPan" powered="true"/>
          <fadeIn crossFadeLinkType="linkedAsymmetric" endPoint="0" shape="19" startPoint="0" type="log"/>
          <fadeOut crossFadeLinkType="linkedAsymmetric" endPoint="153985" shape="19" startPoint="153985" type="log"/>
          <editParameter parameterIndex="0" slotIndex="4294967280"/>
          <channelMap>
            <channel index="0" sourceIndex="0"/>
          </channelMap>
        </audioClip>
        <audioClip clipAutoCrossfade="true" crossFadeHeadClipID="-1" crossFadeTailClipID="-1" endPoint="13868288" fileID="2" hue="-1" id="22" lockedInTime="false" looped="false" name="Narrator_BSOD 48000 1" offline="false" select="false" sourceInPoint="574727" sourceOutPoint="1071632" startPoint="13371383" zOrder="22">
          <component componentGuid="bd63aa97-5ca4-42e4-b650-268edacff7ae" componentID="Audition.Fader" id="clipGain" name="volume" powered="true">
            <parameter index="0" name="volume" parameterValue="1"/>
            <parameter index="1" name="static gain" parameterValue="1"/>
          </component>
          <component componentGuid="cebd8a10-c12c-4ec0-9fec-0cef62e46079" componentID="Audition.Mute" id="clipMute" name="Mute" powered="true">
            <parameter index="0" parameterValue="0"/>
            <parameter index="1" name="mute" parameterValue="0"/>
          </component>
          <component id="clipPan" powered="true"/>
          <fadeIn crossFadeLinkType="linkedAsymmetric" endPoint="0" shape="19" startPoint="0" type="log"/>
          <fadeOut crossFadeLinkType="linkedAsymmetric" endPoint="496905" shape="19" startPoint="496905" type="log"/>
          <editParameter parameterIndex="0" slotIndex="4294967280"/>
          <channelMap>
            <channel index="0" sourceIndex="0"/>
          </channelMap>
        </audioClip>
        <audioClip clipAutoCrossfade="true" crossFadeHeadClipID="-1" crossFadeTailClipID="-1" endPoint="14053549" fileID="2" hue="-1" id="23" lockedInTime="false" looped="false" name="Narrator_BSOD 48000 1" offline="false" select="false" sourceInPoint="1071632" sourceOutPoint="1256893" startPoint="13868288" zOrder="23">
          <component componentGuid="31c82526-7500-4118-a814-bd428e8e6718" componentID="Audition.Fader" id="clipGain" name="volume" powered="true">
            <parameter index="0" name="volume" parameterValue="1"/>
            <parameter index="1" name="static gain" parameterValue="1"/>
          </component>
          <component componentGuid="7d579856-fc31-4ae0-b554-09356d27fb59" componentID="Audition.Mute" id="clipMute" name="Mute" powered="true">
            <parameter index="0" parameterValue="0"/>
            <parameter index="1" name="mute" parameterValue="0"/>
          </component>
          <component id="clipPan" powered="true"/>
          <fadeIn crossFadeLinkType="linkedAsymmetric" endPoint="0" shape="19" startPoint="0" type="log"/>
          <fadeOut crossFadeLinkType="linkedAsymmetric" endPoint="185261" shape="19" startPoint="185261" type="log"/>
          <editParameter parameterIndex="0" slotIndex="4294967280"/>
          <channelMap>
            <channel index="0" sourceIndex="0"/>
          </channelMap>
        </audioClip>
        <audioClip clipAutoCrossfade="true" crossFadeHeadClipID="-1" crossFadeTailClipID="-1" endPoint="14652648" fileID="2" hue="-1" id="24" lockedInTime="false" looped="false" name="Narrator_BSOD 48000 1" offline="false" select="false" sourceInPoint="1301252" sourceOutPoint="1900351" startPoint="14053549" zOrder="24">
          <component componentGuid="487c5a64-61f6-4848-aedf-0413ff6fa540" componentID="Audition.Fader" id="clipGain" name="volume" powered="true">
            <parameter index="0" name="volume" parameterValue="1">
              <parameterKeyframes enableSplines="false" readOnly="false">
                <parameterKeyframe sampleOffset="1896406" select="false" type="linear" value="0.64999997615814208984375"/>
              </parameterKeyframes>
            </parameter>
            <parameter index="1" name="static gain" parameterValue="1"/>
          </component>
          <component componentGuid="b4b418db-d20d-4ea9-8e7d-e2425b6a19ec" componentID="Audition.Mute" id="clipMute" name="Mute" powered="true">
            <parameter index="0" parameterValue="0"/>
            <parameter index="1" name="mute" parameterValue="0"/>
          </component>
          <component id="clipPan" powered="true"/>
          <fadeIn crossFadeLinkType="linkedAsymmetric" endPoint="0" shape="19" startPoint="0" type="log"/>
          <fadeOut crossFadeLinkType="linkedAsymmetric" endPoint="599099" shape="19" startPoint="599099" type="log"/>
          <editParameter parameterIndex="0" slotIndex="4294967280"/>
          <channelMap>
            <channel index="0" sourceIndex="0"/>
          </channelMap>
        </audioClip>
        <audioClip clipAutoCrossfade="true" crossFadeHeadClipID="-1" crossFadeTailClipID="-1" endPoint="15406742" fileID="2" hue="-1" id="25" lockedInTime="false" looped="false" name="Narrator_BSOD 48000 1" offline="false" select="false" sourceInPoint="2292010" sourceOutPoint="3005397" startPoint="14693355" zOrder="25">
          <component componentGuid="dd4a0ba4-f8bb-4b47-9e01-97bde5604cd5" componentID="Audition.Fader" id="clipGain" name="volume" powered="true">
            <parameter index="0" name="volume" parameterValue="1">
              <parameterKeyframes enableSplines="false" readOnly="false">
                <parameterKeyframe sampleOffset="1896406" select="false" type="linear" value="0.64999997615814208984375"/>
              </parameterKeyframes>
            </parameter>
            <parameter index="1" name="static gain" parameterValue="1"/>
          </component>
          <component componentGuid="00079226-6936-4088-ad8e-73a506c99cb7" componentID="Audition.Mute" id="clipMute" name="Mute" powered="true">
            <parameter index="0" parameterValue="0"/>
            <parameter index="1" name="mute" parameterValue="0"/>
          </component>
          <component id="clipPan" powered="true"/>
          <fadeIn crossFadeLinkType="linkedAsymmetric" endPoint="0" shape="19" startPoint="0" type="log"/>
          <fadeOut crossFadeLinkType="linkedAsymmetric" endPoint="713387" shape="19" startPoint="713387" type="log"/>
          <editParameter parameterIndex="0" slotIndex="4294967280"/>
          <channelMap>
            <channel index="0" sourceIndex="0"/>
          </channelMap>
        </audioClip>
        <audioClip clipAutoCrossfade="true" crossFadeHeadClipID="-1" crossFadeTailClipID="-1" endPoint="15600000" fileID="2" hue="-1" id="26" lockedInTime="false" looped="false" name="Narrator_BSOD 48000 1" offline="false" select="false" sourceInPoint="3032795" sourceOutPoint="3205468" startPoint="15427327" zOrder="26">
          <component componentGuid="2ee5050d-951a-4aea-bc65-0ee6b6dc5153" componentID="Audition.Fader" id="clipGain" name="volume" powered="true">
            <parameter index="0" name="volume" parameterValue="1">
              <parameterKeyframes enableSplines="false" readOnly="false">
                <parameterKeyframe sampleOffset="1896406" select="false" type="linear" value="0.64999997615814208984375"/>
              </parameterKeyframes>
            </parameter>
            <parameter index="1" name="static gain" parameterValue="1"/>
          </component>
          <component componentGuid="55329619-4ac4-4e2e-a758-d24b639e53db" componentID="Audition.Mute" id="clipMute" name="Mute" powered="true">
            <parameter index="0" parameterValue="0"/>
            <parameter index="1" name="mute" parameterValue="0"/>
          </component>
          <component id="clipPan" powered="true"/>
          <fadeIn crossFadeLinkType="linkedAsymmetric" endPoint="0" shape="19" startPoint="0" type="log"/>
          <fadeOut crossFadeLinkType="linkedAsymmetric" endPoint="172673" shape="19" startPoint="172673" type="log"/>
          <editParameter parameterIndex="0" slotIndex="4294967280"/>
          <channelMap>
            <channel index="0" sourceIndex="0"/>
          </channelMap>
        </audioClip>
        <audioClip clipAutoCrossfade="true" crossFadeHeadClipID="-1" crossFadeTailClipID="-1" endPoint="16658764" fileID="3" hue="-1" id="27" lockedInTime="false" looped="false" name="Narrator_Motherboard 48000 1" offline="false" select="false" sourceInPoint="38718" sourceOutPoint="901070" startPoint="15796412" zOrder="27">
          <component componentGuid="9c23f09e-18f5-4672-a782-2b1db59bfb5c" componentID="Audition.Fader" id="clipGain" name="volume" powered="true">
            <parameter index="0" name="volume" parameterValue="1"/>
            <parameter index="1" name="static gain" parameterValue="1"/>
          </component>
          <component componentGuid="a5bf1668-1c4c-464b-aa34-b9e4cfbef221" componentID="Audition.Mute" id="clipMute" name="Mute" powered="true">
            <parameter index="0" parameterValue="0"/>
            <parameter index="1" name="mute" parameterValue="0"/>
          </component>
          <component id="clipPan" powered="true"/>
          <fadeIn crossFadeLinkType="linkedAsymmetric" endPoint="0" shape="19" startPoint="0" type="log"/>
          <fadeOut crossFadeLinkType="linkedAsymmetric" endPoint="862352" shape="19" startPoint="862352" type="log"/>
          <editParameter parameterIndex="0" slotIndex="4294967280"/>
          <channelMap>
            <channel index="0" sourceIndex="0"/>
          </channelMap>
        </audioClip>
        <audioClip clipAutoCrossfade="true" crossFadeHeadClipID="-1" crossFadeTailClipID="-1" endPoint="17385379" fileID="3" hue="-1" id="28" lockedInTime="false" looped="false" name="Narrator_Motherboard 48000 1" offline="false" select="true" sourceInPoint="1757044" sourceOutPoint="2449798" startPoint="16692625" zOrder="31">
          <component componentGuid="90fba993-e839-4d33-bfe4-dfd8b218902b" componentID="Audition.Fader" id="clipGain" name="volume" powered="true">
            <parameter index="0" name="volume" parameterValue="1"/>
            <parameter index="1" name="static gain" parameterValue="1"/>
          </component>
          <component componentGuid="7be16ced-af3e-42bd-8228-5d0591d0d81d" componentID="Audition.Mute" id="clipMute" name="Mute" powered="true">
            <parameter index="0" parameterValue="0"/>
            <parameter index="1" name="mute" parameterValue="0"/>
          </component>
          <component id="clipPan" powered="true"/>
          <fadeIn crossFadeLinkType="linkedAsymmetric" endPoint="0" shape="19" startPoint="0" type="log"/>
          <fadeOut crossFadeLinkType="linkedAsymmetric" endPoint="692754" shape="19" startPoint="692754" type="log"/>
          <editParameter parameterIndex="0" slotIndex="4294967280"/>
          <channelMap>
            <channel index="0" sourceIndex="0"/>
          </channelMap>
        </audioClip>
      </audioTrack>
      <audioTrack automationLaneOpenState="false" id="10002" index="2" select="false" visible="true">
        <trackParameters trackHeight="192" trackHue="267" trackMinimized="false">
          <name>Track 2</name>
        </trackParameters>
        <trackAudioParameters audioChannelType="mono" automationMode="1" monitoring="false" recordArmed="false" solo="false" soloSafe="false">
          <trackOutput outputID="10000" type="trackID"/>
          <trackInput inputID="1"/>
          <component componentGuid="c2e9a72c-26b8-4a1f-8ec5-268c77c0d881" componentID="Audition.Fader" id="trackFader" name="volume" powered="true">
            <parameter index="0" name="volume" parameterValue="1"/>
            <parameter index="1" name="static gain" parameterValue="1"/>
          </component>
          <component componentGuid="b7d1230d-02f5-4655-94a3-885e33f1941e" componentID="Audition.Mute" id="trackMute" name="Mute" powered="true">
            <parameter index="0" parameterValue="0"/>
            <parameter index="1" name="mute" parameterValue="0"/>
          </component>
          <component componentGuid="44fd5ea2-29dc-4c82-b09e-bff86a9682dc" componentID="Audition.StereoPanner" id="trackPan" name="StereoPanner" powered="true">
            <parameter index="0" name="Pan" parameterValue="0"/>
          </component>
          <component componentGuid="4d99decc-5358-4b2a-9947-c64276244449" componentID="Audition.EQ" id="trackEQ" name="EQ" powered="false">
            <parameter index="0" name="Low Shelf Frequency" parameterValue="0.000834028352983295917510986328125"/>
            <parameter index="1" name="Low Shelf Gain" parameterValue="0.5"/>
            <parameter index="2" name="High Shelf Frequency" parameterValue="0.74979150295257568359375"/>
            <parameter index="3" name="High Shelf Gain" parameterValue="0.5"/>
            <parameter index="4" name="EQ Band 1 Center Frequency" parameterValue="0.00125104258768260478973388671875"/>
            <parameter index="5" name="EQ Band 1 Q" parameterValue="0.000199989997781813144683837890625"/>
            <parameter index="6" name="EQ Band 1 Gain" parameterValue="0.5"/>
            <parameter index="7" name="EQ Band 1 Enable" parameterValue="1"/>
            <parameter index="8" name="EQ Band 2 Center Frequency" parameterValue="0.0075062550604343414306640625"/>
            <parameter index="9" name="EQ Band 2 Q" parameterValue="0.000199989997781813144683837890625"/>
            <parameter index="10" name="EQ Band 2 Gain" parameterValue="0.5"/>
            <parameter index="11" name="EQ Band 2 Enable" parameterValue="1"/>
            <parameter index="12" name="EQ Band 3 Center Frequency" parameterValue="0.0325271077454090118408203125"/>
            <parameter index="13" name="EQ Band 3 Q" parameterValue="0.000199989997781813144683837890625"/>
            <parameter index="14" name="EQ Band 3 Gain" parameterValue="0.5"/>
            <parameter index="15" name="EQ Band 3 Enable" parameterValue="1"/>
            <parameter index="16" name="EQ Band 4 Center Frequency" parameterValue="0.13261051476001739501953125"/>
            <parameter index="17" name="EQ Band 4 Q" parameterValue="0.000199989997781813144683837890625"/>
            <parameter index="18" name="EQ Band 4 Gain" parameterValue="0.5"/>
            <parameter index="19" name="EQ Band 4 Enable" parameterValue="1"/>
            <parameter index="20" name="EQ Band 5 Center Frequency" parameterValue="0.532944142818450927734375"/>
            <parameter index="21" name="EQ Band 5 Q" parameterValue="0.000199989997781813144683837890625"/>
            <parameter index="22" name="EQ Band 5 Gain" parameterValue="0.5"/>
            <parameter index="23" name="EQ Band 5 Enable" parameterValue="1"/>
            <parameter index="24" name="Gain" parameterValue="0.666666686534881591796875"/>
            <parameter index="25" name="ConstantQ" parameterValue="1"/>
            <parameter index="26" name="Low Shelf Filter Order" parameterValue="0"/>
            <parameter index="27" name="High Shelf Filter Order" parameterValue="0"/>
            <parameter index="28" name="Ultra-Quiet Mode" parameterValue="0"/>
            <parameter index="29" name="Low Shelf Enable" parameterValue="1"/>
            <parameter index="30" name="High Shelf Enable" parameterValue="1"/>
            <parameter index="31" name="Original Sample Rate" parameterValue="0.25"/>
            <parameter index="32" name="EQ Band 1 Bandwidth" parameterValue="0.002499990165233612060546875"/>
            <parameter index="33" name="EQ Band 2 Bandwidth" parameterValue="0.0099999904632568359375"/>
            <parameter index="34" name="EQ Band 3 Bandwidth" parameterValue="0.0399999916553497314453125"/>
            <parameter index="35" name="EQ Band 4 Bandwidth" parameterValue="0.15999998152256011962890625"/>
            <parameter index="36" name="EQ Band 5 Bandwidth" parameterValue="0.63999998569488525390625"/>
            <parameter index="37" name="High-Pass Filter Enable" parameterValue="0"/>
            <parameter index="38" name="High-Pass Cutoff Frequency" parameterValue="0"/>
            <parameter index="39" name="High-Pass Slope" parameterValue="0.4000000059604644775390625"/>
            <parameter index="40" name="Low-Pass Filter Enable" parameterValue="0"/>
            <parameter index="41" name="Low-Pass Cutoff Frequency" parameterValue="0.833194315433502197265625"/>
            <parameter index="42" name="Low-Pass Slope" parameterValue="0.4000000059604644775390625"/>
            <parameter index="43" name="Bypass" parameterValue="0"/>
            <parameter index="44" name="LowGraphRange" parameterValue="1"/>
          </component>
        </trackAudioParameters>
        <editParameter parameterIndex="0" slotIndex="4294967280"/>
      </audioTrack>
      <audioTrack automationLaneOpenState="false" id="10003" index="3" select="false" visible="true">
        <trackParameters trackHeight="192" trackHue="51" trackMinimized="false">
          <name>Track 3</name>
        </trackParameters>
        <trackAudioParameters audioChannelType="mono" automationMode="1" monitoring="false" recordArmed="false" solo="false" soloSafe="false">
          <trackOutput outputID="10000" type="trackID"/>
          <trackInput inputID="1"/>
          <component componentGuid="39cb1389-9a99-4745-b4d8-bc7467d29859" componentID="Audition.Fader" id="trackFader" name="volume" powered="true">
            <parameter index="0" name="volume" parameterValue="1"/>
            <parameter index="1" name="static gain" parameterValue="1"/>
          </component>
          <component componentGuid="18d7ae0d-89d2-4dc2-aa07-d22b4f8c1843" componentID="Audition.Mute" id="trackMute" name="Mute" powered="true">
            <parameter index="0" parameterValue="0"/>
            <parameter index="1" name="mute" parameterValue="0"/>
          </component>
          <component componentGuid="ddbe5555-9cb6-4dca-aa81-f72913dd6a38" componentID="Audition.StereoPanner" id="trackPan" name="StereoPanner" powered="true">
            <parameter index="0" name="Pan" parameterValue="0"/>
          </component>
          <component componentGuid="fbbcd8cc-08d4-482b-9e5c-edfed64cdb1f" componentID="Audition.EQ" id="trackEQ" name="EQ" powered="false">
            <parameter index="0" name="Low Shelf Frequency" parameterValue="0.000834028352983295917510986328125"/>
            <parameter index="1" name="Low Shelf Gain" parameterValue="0.5"/>
            <parameter index="2" name="High Shelf Frequency" parameterValue="0.74979150295257568359375"/>
            <parameter index="3" name="High Shelf Gain" parameterValue="0.5"/>
            <parameter index="4" name="EQ Band 1 Center Frequency" parameterValue="0.00125104258768260478973388671875"/>
            <parameter index="5" name="EQ Band 1 Q" parameterValue="0.000199989997781813144683837890625"/>
            <parameter index="6" name="EQ Band 1 Gain" parameterValue="0.5"/>
            <parameter index="7" name="EQ Band 1 Enable" parameterValue="1"/>
            <parameter index="8" name="EQ Band 2 Center Frequency" parameterValue="0.0075062550604343414306640625"/>
            <parameter index="9" name="EQ Band 2 Q" parameterValue="0.000199989997781813144683837890625"/>
            <parameter index="10" name="EQ Band 2 Gain" parameterValue="0.5"/>
            <parameter index="11" name="EQ Band 2 Enable" parameterValue="1"/>
            <parameter index="12" name="EQ Band 3 Center Frequency" parameterValue="0.0325271077454090118408203125"/>
            <parameter index="13" name="EQ Band 3 Q" parameterValue="0.000199989997781813144683837890625"/>
            <parameter index="14" name="EQ Band 3 Gain" parameterValue="0.5"/>
            <parameter index="15" name="EQ Band 3 Enable" parameterValue="1"/>
            <parameter index="16" name="EQ Band 4 Center Frequency" parameterValue="0.13261051476001739501953125"/>
            <parameter index="17" name="EQ Band 4 Q" parameterValue="0.000199989997781813144683837890625"/>
            <parameter index="18" name="EQ Band 4 Gain" parameterValue="0.5"/>
            <parameter index="19" name="EQ Band 4 Enable" parameterValue="1"/>
            <parameter index="20" name="EQ Band 5 Center Frequency" parameterValue="0.532944142818450927734375"/>
            <parameter index="21" name="EQ Band 5 Q" parameterValue="0.000199989997781813144683837890625"/>
            <parameter index="22" name="EQ Band 5 Gain" parameterValue="0.5"/>
            <parameter index="23" name="EQ Band 5 Enable" parameterValue="1"/>
            <parameter index="24" name="Gain" parameterValue="0.666666686534881591796875"/>
            <parameter index="25" name="ConstantQ" parameterValue="1"/>
            <parameter index="26" name="Low Shelf Filter Order" parameterValue="0"/>
            <parameter index="27" name="High Shelf Filter Order" parameterValue="0"/>
            <parameter index="28" name="Ultra-Quiet Mode" parameterValue="0"/>
            <parameter index="29" name="Low Shelf Enable" parameterValue="1"/>
            <parameter index="30" name="High Shelf Enable" parameterValue="1"/>
            <parameter index="31" name="Original Sample Rate" parameterValue="0.25"/>
            <parameter index="32" name="EQ Band 1 Bandwidth" parameterValue="0.002499990165233612060546875"/>
            <parameter index="33" name="EQ Band 2 Bandwidth" parameterValue="0.0099999904632568359375"/>
            <parameter index="34" name="EQ Band 3 Bandwidth" parameterValue="0.0399999916553497314453125"/>
            <parameter index="35" name="EQ Band 4 Bandwidth" parameterValue="0.15999998152256011962890625"/>
            <parameter index="36" name="EQ Band 5 Bandwidth" parameterValue="0.63999998569488525390625"/>
            <parameter index="37" name="High-Pass Filter Enable" parameterValue="0"/>
            <parameter index="38" name="High-Pass Cutoff Frequency" parameterValue="0"/>
            <parameter index="39" name="High-Pass Slope" parameterValue="0.4000000059604644775390625"/>
            <parameter index="40" name="Low-Pass Filter Enable" parameterValue="0"/>
            <parameter index="41" name="Low-Pass Cutoff Frequency" parameterValue="0.833194315433502197265625"/>
            <parameter index="42" name="Low-Pass Slope" parameterValue="0.4000000059604644775390625"/>
            <parameter index="43" name="Bypass" parameterValue="0"/>
            <parameter index="44" name="LowGraphRange" parameterValue="1"/>
          </component>
        </trackAudioParameters>
        <editParameter parameterIndex="0" slotIndex="4294967280"/>
      </audioTrack>
      <audioTrack automationLaneOpenState="false" id="10004" index="4" select="false" visible="true">
        <trackParameters trackHeight="192" trackHue="182" trackMinimized="false">
          <name>Track 4</name>
        </trackParameters>
        <trackAudioParameters audioChannelType="mono" automationMode="1" monitoring="false" recordArmed="false" solo="false" soloSafe="false">
          <trackOutput outputID="10000" type="trackID"/>
          <trackInput inputID="1"/>
          <component componentGuid="be51dfc2-5bf0-4f62-880f-500617ce8e15" componentID="Audition.Fader" id="trackFader" name="volume" powered="true">
            <parameter index="0" name="volume" parameterValue="1"/>
            <parameter index="1" name="static gain" parameterValue="1"/>
          </component>
          <component componentGuid="48ae2e8c-2ba1-4850-8e99-dce1eb1280c5" componentID="Audition.Mute" id="trackMute" name="Mute" powered="true">
            <parameter index="0" parameterValue="0"/>
            <parameter index="1" name="mute" parameterValue="0"/>
          </component>
          <component componentGuid="56aa787a-d30a-4593-9f4e-07176d0d4c92" componentID="Audition.StereoPanner" id="trackPan" name="StereoPanner" powered="true">
            <parameter index="0" name="Pan" parameterValue="0"/>
          </component>
          <component componentGuid="144ebbfd-089b-4e09-8afb-ecdf0fc6f542" componentID="Audition.EQ" id="trackEQ" name="EQ" powered="false">
            <parameter index="0" name="Low Shelf Frequency" parameterValue="0.000834028352983295917510986328125"/>
            <parameter index="1" name="Low Shelf Gain" parameterValue="0.5"/>
            <parameter index="2" name="High Shelf Frequency" parameterValue="0.74979150295257568359375"/>
            <parameter index="3" name="High Shelf Gain" parameterValue="0.5"/>
            <parameter index="4" name="EQ Band 1 Center Frequency" parameterValue="0.00125104258768260478973388671875"/>
            <parameter index="5" name="EQ Band 1 Q" parameterValue="0.000199989997781813144683837890625"/>
            <parameter index="6" name="EQ Band 1 Gain" parameterValue="0.5"/>
            <parameter index="7" name="EQ Band 1 Enable" parameterValue="1"/>
            <parameter index="8" name="EQ Band 2 Center Frequency" parameterValue="0.0075062550604343414306640625"/>
            <parameter index="9" name="EQ Band 2 Q" parameterValue="0.000199989997781813144683837890625"/>
            <parameter index="10" name="EQ Band 2 Gain" parameterValue="0.5"/>
            <parameter index="11" name="EQ Band 2 Enable" parameterValue="1"/>
            <parameter index="12" name="EQ Band 3 Center Frequency" parameterValue="0.0325271077454090118408203125"/>
            <parameter index="13" name="EQ Band 3 Q" parameterValue="0.000199989997781813144683837890625"/>
            <parameter index="14" name="EQ Band 3 Gain" parameterValue="0.5"/>
            <parameter index="15" name="EQ Band 3 Enable" parameterValue="1"/>
            <parameter index="16" name="EQ Band 4 Center Frequency" parameterValue="0.13261051476001739501953125"/>
            <parameter index="17" name="EQ Band 4 Q" parameterValue="0.000199989997781813144683837890625"/>
            <parameter index="18" name="EQ Band 4 Gain" parameterValue="0.5"/>
            <parameter index="19" name="EQ Band 4 Enable" parameterValue="1"/>
            <parameter index="20" name="EQ Band 5 Center Frequency" parameterValue="0.532944142818450927734375"/>
            <parameter index="21" name="EQ Band 5 Q" parameterValue="0.000199989997781813144683837890625"/>
            <parameter index="22" name="EQ Band 5 Gain" parameterValue="0.5"/>
            <parameter index="23" name="EQ Band 5 Enable" parameterValue="1"/>
            <parameter index="24" name="Gain" parameterValue="0.666666686534881591796875"/>
            <parameter index="25" name="ConstantQ" parameterValue="1"/>
            <parameter index="26" name="Low Shelf Filter Order" parameterValue="0"/>
            <parameter index="27" name="High Shelf Filter Order" parameterValue="0"/>
            <parameter index="28" name="Ultra-Quiet Mode" parameterValue="0"/>
            <parameter index="29" name="Low Shelf Enable" parameterValue="1"/>
            <parameter index="30" name="High Shelf Enable" parameterValue="1"/>
            <parameter index="31" name="Original Sample Rate" parameterValue="0.25"/>
            <parameter index="32" name="EQ Band 1 Bandwidth" parameterValue="0.002499990165233612060546875"/>
            <parameter index="33" name="EQ Band 2 Bandwidth" parameterValue="0.0099999904632568359375"/>
            <parameter index="34" name="EQ Band 3 Bandwidth" parameterValue="0.0399999916553497314453125"/>
            <parameter index="35" name="EQ Band 4 Bandwidth" parameterValue="0.15999998152256011962890625"/>
            <parameter index="36" name="EQ Band 5 Bandwidth" parameterValue="0.63999998569488525390625"/>
            <parameter index="37" name="High-Pass Filter Enable" parameterValue="0"/>
            <parameter index="38" name="High-Pass Cutoff Frequency" parameterValue="0"/>
            <parameter index="39" name="High-Pass Slope" parameterValue="0.4000000059604644775390625"/>
            <parameter index="40" name="Low-Pass Filter Enable" parameterValue="0"/>
            <parameter index="41" name="Low-Pass Cutoff Frequency" parameterValue="0.833194315433502197265625"/>
            <parameter index="42" name="Low-Pass Slope" parameterValue="0.4000000059604644775390625"/>
            <parameter index="43" name="Bypass" parameterValue="0"/>
            <parameter index="44" name="LowGraphRange" parameterValue="1"/>
          </component>
        </trackAudioParameters>
        <editParameter parameterIndex="0" slotIndex="4294967280"/>
      </audioTrack>
      <audioTrack automationLaneOpenState="false" id="10005" index="5" select="false" visible="true">
        <trackParameters trackHeight="192" trackHue="294" trackMinimized="false">
          <name>Track 5</name>
        </trackParameters>
        <trackAudioParameters audioChannelType="mono" automationMode="1" monitoring="false" recordArmed="false" solo="false" soloSafe="false">
          <trackOutput outputID="10000" type="trackID"/>
          <trackInput inputID="1"/>
          <component componentGuid="cc764a21-e22b-416b-852a-8229ef1d916e" componentID="Audition.Fader" id="trackFader" name="volume" powered="true">
            <parameter index="0" name="volume" parameterValue="1"/>
            <parameter index="1" name="static gain" parameterValue="1"/>
          </component>
          <component componentGuid="dbde5441-0b11-4522-a7e6-2cdaeaa90767" componentID="Audition.Mute" id="trackMute" name="Mute" powered="true">
            <parameter index="0" parameterValue="0"/>
            <parameter index="1" name="mute" parameterValue="0"/>
          </component>
          <component componentGuid="6cd567a9-b3af-4441-b17d-b6ba5ad1480a" componentID="Audition.StereoPanner" id="trackPan" name="StereoPanner" powered="true">
            <parameter index="0" name="Pan" parameterValue="0"/>
          </component>
          <component componentGuid="505f77d4-ec03-4055-b037-badf85784423" componentID="Audition.EQ" id="trackEQ" name="EQ" powered="false">
            <parameter index="0" name="Low Shelf Frequency" parameterValue="0.000834028352983295917510986328125"/>
            <parameter index="1" name="Low Shelf Gain" parameterValue="0.5"/>
            <parameter index="2" name="High Shelf Frequency" parameterValue="0.74979150295257568359375"/>
            <parameter index="3" name="High Shelf Gain" parameterValue="0.5"/>
            <parameter index="4" name="EQ Band 1 Center Frequency" parameterValue="0.00125104258768260478973388671875"/>
            <parameter index="5" name="EQ Band 1 Q" parameterValue="0.000199989997781813144683837890625"/>
            <parameter index="6" name="EQ Band 1 Gain" parameterValue="0.5"/>
            <parameter index="7" name="EQ Band 1 Enable" parameterValue="1"/>
            <parameter index="8" name="EQ Band 2 Center Frequency" parameterValue="0.0075062550604343414306640625"/>
            <parameter index="9" name="EQ Band 2 Q" parameterValue="0.000199989997781813144683837890625"/>
            <parameter index="10" name="EQ Band 2 Gain" parameterValue="0.5"/>
            <parameter index="11" name="EQ Band 2 Enable" parameterValue="1"/>
            <parameter index="12" name="EQ Band 3 Center Frequency" parameterValue="0.0325271077454090118408203125"/>
            <parameter index="13" name="EQ Band 3 Q" parameterValue="0.000199989997781813144683837890625"/>
            <parameter index="14" name="EQ Band 3 Gain" parameterValue="0.5"/>
            <parameter index="15" name="EQ Band 3 Enable" parameterValue="1"/>
            <parameter index="16" name="EQ Band 4 Center Frequency" parameterValue="0.13261051476001739501953125"/>
            <parameter index="17" name="EQ Band 4 Q" parameterValue="0.000199989997781813144683837890625"/>
            <parameter index="18" name="EQ Band 4 Gain" parameterValue="0.5"/>
            <parameter index="19" name="EQ Band 4 Enable" parameterValue="1"/>
            <parameter index="20" name="EQ Band 5 Center Frequency" parameterValue="0.532944142818450927734375"/>
            <parameter index="21" name="EQ Band 5 Q" parameterValue="0.000199989997781813144683837890625"/>
            <parameter index="22" name="EQ Band 5 Gain" parameterValue="0.5"/>
            <parameter index="23" name="EQ Band 5 Enable" parameterValue="1"/>
            <parameter index="24" name="Gain" parameterValue="0.666666686534881591796875"/>
            <parameter index="25" name="ConstantQ" parameterValue="1"/>
            <parameter index="26" name="Low Shelf Filter Order" parameterValue="0"/>
            <parameter index="27" name="High Shelf Filter Order" parameterValue="0"/>
            <parameter index="28" name="Ultra-Quiet Mode" parameterValue="0"/>
            <parameter index="29" name="Low Shelf Enable" parameterValue="1"/>
            <parameter index="30" name="High Shelf Enable" parameterValue="1"/>
            <parameter index="31" name="Original Sample Rate" parameterValue="0.25"/>
            <parameter index="32" name="EQ Band 1 Bandwidth" parameterValue="0.002499990165233612060546875"/>
            <parameter index="33" name="EQ Band 2 Bandwidth" parameterValue="0.0099999904632568359375"/>
            <parameter index="34" name="EQ Band 3 Bandwidth" parameterValue="0.0399999916553497314453125"/>
            <parameter index="35" name="EQ Band 4 Bandwidth" parameterValue="0.15999998152256011962890625"/>
            <parameter index="36" name="EQ Band 5 Bandwidth" parameterValue="0.63999998569488525390625"/>
            <parameter index="37" name="High-Pass Filter Enable" parameterValue="0"/>
            <parameter index="38" name="High-Pass Cutoff Frequency" parameterValue="0"/>
            <parameter index="39" name="High-Pass Slope" parameterValue="0.4000000059604644775390625"/>
            <parameter index="40" name="Low-Pass Filter Enable" parameterValue="0"/>
            <parameter index="41" name="Low-Pass Cutoff Frequency" parameterValue="0.833194315433502197265625"/>
            <parameter index="42" name="Low-Pass Slope" parameterValue="0.4000000059604644775390625"/>
            <parameter index="43" name="Bypass" parameterValue="0"/>
            <parameter index="44" name="LowGraphRange" parameterValue="1"/>
          </component>
        </trackAudioParameters>
        <editParameter parameterIndex="0" slotIndex="4294967280"/>
      </audioTrack>
      <audioTrack automationLaneOpenState="false" id="10006" index="6" select="false" visible="true">
        <trackParameters trackHeight="192" trackHue="92" trackMinimized="false">
          <name>Track 6</name>
        </trackParameters>
        <trackAudioParameters audioChannelType="mono" automationMode="1" monitoring="false" recordArmed="false" solo="false" soloSafe="false">
          <trackOutput outputID="10000" type="trackID"/>
          <trackInput inputID="1"/>
          <component componentGuid="2e9bc8ca-32a2-4f9c-ae25-9d2b1927ea48" componentID="Audition.Fader" id="trackFader" name="volume" powered="true">
            <parameter index="0" name="volume" parameterValue="1"/>
            <parameter index="1" name="static gain" parameterValue="1"/>
          </component>
          <component componentGuid="574bd05e-138f-48aa-a699-0618f78565da" componentID="Audition.Mute" id="trackMute" name="Mute" powered="true">
            <parameter index="0" parameterValue="0"/>
            <parameter index="1" name="mute" parameterValue="0"/>
          </component>
          <component componentGuid="53a2afdf-999a-45b9-9cea-65627e962c14" componentID="Audition.StereoPanner" id="trackPan" name="StereoPanner" powered="true">
            <parameter index="0" name="Pan" parameterValue="0"/>
          </component>
          <component componentGuid="4b265172-5e5e-4ce3-b414-e90ca7e62aca" componentID="Audition.EQ" id="trackEQ" name="EQ" powered="false">
            <parameter index="0" name="Low Shelf Frequency" parameterValue="0.000834028352983295917510986328125"/>
            <parameter index="1" name="Low Shelf Gain" parameterValue="0.5"/>
            <parameter index="2" name="High Shelf Frequency" parameterValue="0.74979150295257568359375"/>
            <parameter index="3" name="High Shelf Gain" parameterValue="0.5"/>
            <parameter index="4" name="EQ Band 1 Center Frequency" parameterValue="0.00125104258768260478973388671875"/>
            <parameter index="5" name="EQ Band 1 Q" parameterValue="0.000199989997781813144683837890625"/>
            <parameter index="6" name="EQ Band 1 Gain" parameterValue="0.5"/>
            <parameter index="7" name="EQ Band 1 Enable" parameterValue="1"/>
            <parameter index="8" name="EQ Band 2 Center Frequency" parameterValue="0.0075062550604343414306640625"/>
            <parameter index="9" name="EQ Band 2 Q" parameterValue="0.000199989997781813144683837890625"/>
            <parameter index="10" name="EQ Band 2 Gain" parameterValue="0.5"/>
            <parameter index="11" name="EQ Band 2 Enable" parameterValue="1"/>
            <parameter index="12" name="EQ Band 3 Center Frequency" parameterValue="0.0325271077454090118408203125"/>
            <parameter index="13" name="EQ Band 3 Q" parameterValue="0.000199989997781813144683837890625"/>
            <parameter index="14" name="EQ Band 3 Gain" parameterValue="0.5"/>
            <parameter index="15" name="EQ Band 3 Enable" parameterValue="1"/>
            <parameter index="16" name="EQ Band 4 Center Frequency" parameterValue="0.13261051476001739501953125"/>
            <parameter index="17" name="EQ Band 4 Q" parameterValue="0.000199989997781813144683837890625"/>
            <parameter index="18" name="EQ Band 4 Gain" parameterValue="0.5"/>
            <parameter index="19" name="EQ Band 4 Enable" parameterValue="1"/>
            <parameter index="20" name="EQ Band 5 Center Frequency" parameterValue="0.532944142818450927734375"/>
            <parameter index="21" name="EQ Band 5 Q" parameterValue="0.000199989997781813144683837890625"/>
            <parameter index="22" name="EQ Band 5 Gain" parameterValue="0.5"/>
            <parameter index="23" name="EQ Band 5 Enable" parameterValue="1"/>
            <parameter index="24" name="Gain" parameterValue="0.666666686534881591796875"/>
            <parameter index="25" name="ConstantQ" parameterValue="1"/>
            <parameter index="26" name="Low Shelf Filter Order" parameterValue="0"/>
            <parameter index="27" name="High Shelf Filter Order" parameterValue="0"/>
            <parameter index="28" name="Ultra-Quiet Mode" parameterValue="0"/>
            <parameter index="29" name="Low Shelf Enable" parameterValue="1"/>
            <parameter index="30" name="High Shelf Enable" parameterValue="1"/>
            <parameter index="31" name="Original Sample Rate" parameterValue="0.25"/>
            <parameter index="32" name="EQ Band 1 Bandwidth" parameterValue="0.002499990165233612060546875"/>
            <parameter index="33" name="EQ Band 2 Bandwidth" parameterValue="0.0099999904632568359375"/>
            <parameter index="34" name="EQ Band 3 Bandwidth" parameterValue="0.0399999916553497314453125"/>
            <parameter index="35" name="EQ Band 4 Bandwidth" parameterValue="0.15999998152256011962890625"/>
            <parameter index="36" name="EQ Band 5 Bandwidth" parameterValue="0.63999998569488525390625"/>
            <parameter index="37" name="High-Pass Filter Enable" parameterValue="0"/>
            <parameter index="38" name="High-Pass Cutoff Frequency" parameterValue="0"/>
            <parameter index="39" name="High-Pass Slope" parameterValue="0.4000000059604644775390625"/>
            <parameter index="40" name="Low-Pass Filter Enable" parameterValue="0"/>
            <parameter index="41" name="Low-Pass Cutoff Frequency" parameterValue="0.833194315433502197265625"/>
            <parameter index="42" name="Low-Pass Slope" parameterValue="0.4000000059604644775390625"/>
            <parameter index="43" name="Bypass" parameterValue="0"/>
            <parameter index="44" name="LowGraphRange" parameterValue="1"/>
          </component>
        </trackAudioParameters>
        <editParameter parameterIndex="0" slotIndex="4294967280"/>
      </audioTrack>
      <masterTrack automationLaneOpenState="false" id="10000" index="7" select="false" visible="true">
        <trackParameters trackHeight="192" trackHue="-1" trackMinimized="false">
          <name>Mix</name>
        </trackParameters>
        <trackAudioParameters audioChannelType="mono" automationMode="1" monitoring="false" recordArmed="false" solo="false" soloSafe="true">
          <trackOutput outputID="1" type="hardwareOutput"/>
          <trackInput inputID="-1"/>
          <component componentGuid="a09a7d02-b088-49c5-b907-03561013b66d" componentID="Audition.Fader" id="trackFader" name="volume" powered="true">
            <parameter index="0" name="volume" parameterValue="1"/>
            <parameter index="1" name="static gain" parameterValue="1"/>
          </component>
          <component componentGuid="54970e71-3e2a-4892-9871-88cc49ad405b" componentID="Audition.Mute" id="trackMute" name="Mute" powered="true">
            <parameter index="0" parameterValue="0"/>
            <parameter index="1" name="mute" parameterValue="0"/>
          </component>
          <component componentGuid="a01bdcfd-b07f-4e0d-9bce-4fceaf3e7950" componentID="Audition.StereoPanner" id="trackPan" name="StereoPanner" powered="true">
            <parameter index="0" name="Pan" parameterValue="0"/>
          </component>
          <component componentGuid="a8465586-1422-4319-b69c-7fd5cf223429" componentID="Audition.EQ" id="trackEQ" name="EQ" powered="false">
            <parameter index="0" name="Low Shelf Frequency" parameterValue="0.000834028352983295917510986328125"/>
            <parameter index="1" name="Low Shelf Gain" parameterValue="0.5"/>
            <parameter index="2" name="High Shelf Frequency" parameterValue="0.74979150295257568359375"/>
            <parameter index="3" name="High Shelf Gain" parameterValue="0.5"/>
            <parameter index="4" name="EQ Band 1 Center Frequency" parameterValue="0.00125104258768260478973388671875"/>
            <parameter index="5" name="EQ Band 1 Q" parameterValue="0.000199989997781813144683837890625"/>
            <parameter index="6" name="EQ Band 1 Gain" parameterValue="0.5"/>
            <parameter index="7" name="EQ Band 1 Enable" parameterValue="1"/>
            <parameter index="8" name="EQ Band 2 Center Frequency" parameterValue="0.0075062550604343414306640625"/>
            <parameter index="9" name="EQ Band 2 Q" parameterValue="0.000199989997781813144683837890625"/>
            <parameter index="10" name="EQ Band 2 Gain" parameterValue="0.5"/>
            <parameter index="11" name="EQ Band 2 Enable" parameterValue="1"/>
            <parameter index="12" name="EQ Band 3 Center Frequency" parameterValue="0.0325271077454090118408203125"/>
            <parameter index="13" name="EQ Band 3 Q" parameterValue="0.000199989997781813144683837890625"/>
            <parameter index="14" name="EQ Band 3 Gain" parameterValue="0.5"/>
            <parameter index="15" name="EQ Band 3 Enable" parameterValue="1"/>
            <parameter index="16" name="EQ Band 4 Center Frequency" parameterValue="0.13261051476001739501953125"/>
            <parameter index="17" name="EQ Band 4 Q" parameterValue="0.000199989997781813144683837890625"/>
            <parameter index="18" name="EQ Band 4 Gain" parameterValue="0.5"/>
            <parameter index="19" name="EQ Band 4 Enable" parameterValue="1"/>
            <parameter index="20" name="EQ Band 5 Center Frequency" parameterValue="0.532944142818450927734375"/>
            <parameter index="21" name="EQ Band 5 Q" parameterValue="0.000199989997781813144683837890625"/>
            <parameter index="22" name="EQ Band 5 Gain" parameterValue="0.5"/>
            <parameter index="23" name="EQ Band 5 Enable" parameterValue="1"/>
            <parameter index="24" name="Gain" parameterValue="0.666666686534881591796875"/>
            <parameter index="25" name="ConstantQ" parameterValue="1"/>
            <parameter index="26" name="Low Shelf Filter Order" parameterValue="0"/>
            <parameter index="27" name="High Shelf Filter Order" parameterValue="0"/>
            <parameter index="28" name="Ultra-Quiet Mode" parameterValue="0"/>
            <parameter index="29" name="Low Shelf Enable" parameterValue="1"/>
            <parameter index="30" name="High Shelf Enable" parameterValue="1"/>
            <parameter index="31" name="Original Sample Rate" parameterValue="0.25"/>
            <parameter index="32" name="EQ Band 1 Bandwidth" parameterValue="0.002499990165233612060546875"/>
            <parameter index="33" name="EQ Band 2 Bandwidth" parameterValue="0.0099999904632568359375"/>
            <parameter index="34" name="EQ Band 3 Bandwidth" parameterValue="0.0399999916553497314453125"/>
            <parameter index="35" name="EQ Band 4 Bandwidth" parameterValue="0.15999998152256011962890625"/>
            <parameter index="36" name="EQ Band 5 Bandwidth" parameterValue="0.63999998569488525390625"/>
            <parameter index="37" name="High-Pass Filter Enable" parameterValue="0"/>
            <parameter index="38" name="High-Pass Cutoff Frequency" parameterValue="0"/>
            <parameter index="39" name="High-Pass Slope" parameterValue="0.4000000059604644775390625"/>
            <parameter index="40" name="Low-Pass Filter Enable" parameterValue="0"/>
            <parameter index="41" name="Low-Pass Cutoff Frequency" parameterValue="0.833194315433502197265625"/>
            <parameter index="42" name="Low-Pass Slope" parameterValue="0.4000000059604644775390625"/>
            <parameter index="43" name="Bypass" parameterValue="0"/>
            <parameter index="44" name="LowGraphRange" parameterValue="1"/>
          </component>
        </trackAudioParameters>
        <editParameter parameterIndex="0" slotIndex="4294967280"/>
      </masterTrack>
    </tracks>
    <sessionState ctiPosition="15779247" smpteStart="0">
      <selectionState selectionDuration="0" selectionStart="15779247"/>
      <viewState horizontalViewDuration="635730" horizontalViewStart="16455760" trackControlsWidth="224" verticalScrollOffset="0"/>
      <timeFormatState beatsPerBar="4" beatsPerMinute="120" customFrameRate="12" linkToDefaultTimeSettings="true" noteLength="4" subdivisions="16" timeCodeDropFrame="false" timeCodeFrameRate="30" timeCodeNTSC="false" timeFormat="timeFormatDecimal"/>
      <mixingOptionState defaultPanModeLogarithmic="false" panPower="-3" playOverlappingClips="false"/>
    </sessionState>
    <xmpMetadata><![CDATA[<?xpacket begin="﻿" id="W5M0MpCehiHzreSzNTczkc9d"?>
<x:xmpmeta xmlns:x="adobe:ns:meta/" x:xmptk="Adobe XMP Core 7.1-c000 79.b0f8be9, 2021/12/08-19:11:22        ">
   <rdf:RDF xmlns:rdf="http://www.w3.org/1999/02/22-rdf-syntax-ns#">
      <rdf:Description rdf:about=""
            xmlns:xmp="http://ns.adobe.com/xap/1.0/"
            xmlns:xmpMM="http://ns.adobe.com/xap/1.0/mm/"
            xmlns:stEvt="http://ns.adobe.com/xap/1.0/sType/ResourceEvent#"
            xmlns:stRef="http://ns.adobe.com/xap/1.0/sType/ResourceRef#"
            xmlns:dc="http://purl.org/dc/elements/1.1/"
            xmlns:AEScart="http://ns.adobe.com/aes/cart/"
            xmlns:xmpDM="http://ns.adobe.com/xmp/1.0/DynamicMedia/">
         <xmp:CreatorTool>Adobe Audition 23.3 (Windows)</xmp:CreatorTool>
         <xmp:CreateDate>2023-05-02T15:47:18+01:00</xmp:CreateDate>
         <xmp:MetadataDate>2023-05-30T22:50:53+01:00</xmp:MetadataDate>
         <xmp:ModifyDate>2023-05-30T22:50:53+01:00</xmp:ModifyDate>
         <xmpMM:InstanceID>xmp.iid:ea785ab5-6e07-cd41-a2aa-78e07b5e54f1</xmpMM:InstanceID>
         <xmpMM:DocumentID>xmp.did:ea785ab5-6e07-cd41-a2aa-78e07b5e54f1</xmpMM:DocumentID>
         <xmpMM:OriginalDocumentID>xmp.did:80c2dd83-006f-c248-8d79-d45425484b40</xmpMM:OriginalDocumentID>
         <xmpMM:History>
            <rdf:Seq>
               <rdf:li rdf:parseType="Resource">
                  <stEvt:action>saved</stEvt:action>
                  <stEvt:instanceID>xmp.iid:80c2dd83-006f-c248-8d79-d45425484b40</stEvt:instanceID>
                  <stEvt:when>2023-05-02T15:47:18+01:00</stEvt:when>
                  <stEvt:softwareAgent>Adobe Audition 23.3 (Windows)</stEvt:softwareAgent>
                  <stEvt:changed>/metadata</stEvt:changed>
               </rdf:li>
               <rdf:li rdf:parseType="Resource">
                  <stEvt:action>saved</stEvt:action>
                  <stEvt:instanceID>xmp.iid:a0acb5fe-fd6b-2647-9712-fb26ea8fa33e</stEvt:instanceID>
                  <stEvt:when>2023-05-02T15:53:29+01:00</stEvt:when>
                  <stEvt:softwareAgent>Adobe Audition 23.3 (Windows)</stEvt:softwareAgent>
                  <stEvt:changed>/metadata</stEvt:changed>
               </rdf:li>
               <rdf:li rdf:parseType="Resource">
                  <stEvt:action>saved</stEvt:action>
                  <stEvt:instanceID>xmp.iid:a0d149f1-4590-cf42-b2a0-a570021b9d3a</stEvt:instanceID>
                  <stEvt:when>2023-05-02T15:53:29+01:00</stEvt:when>
                  <stEvt:softwareAgent>Adobe Audition 23.3 (Windows)</stEvt:softwareAgent>
                  <stEvt:changed>/</stEvt:changed>
               </rdf:li>
               <rdf:li rdf:parseType="Resource">
                  <stEvt:action>saved</stEvt:action>
                  <stEvt:instanceID>xmp.iid:614deb70-4840-8946-8b88-0c868df2eaf4</stEvt:instanceID>
                  <stEvt:when>2023-05-04T19:54:38+01:00</stEvt:when>
                  <stEvt:softwareAgent>Adobe Audition 23.3 (Windows)</stEvt:softwareAgent>
                  <stEvt:changed>/metadata</stEvt:changed>
               </rdf:li>
               <rdf:li rdf:parseType="Resource">
                  <stEvt:action>saved</stEvt:action>
                  <stEvt:instanceID>xmp.iid:0a27c978-f45e-f54a-a5b7-05439714ffe1</stEvt:instanceID>
                  <stEvt:when>2023-05-04T19:54:38+01:00</stEvt:when>
                  <stEvt:softwareAgent>Adobe Audition 23.3 (Windows)</stEvt:softwareAgent>
                  <stEvt:changed>/</stEvt:changed>
               </rdf:li>
               <rdf:li rdf:parseType="Resource">
                  <stEvt:action>saved</stEvt:action>
                  <stEvt:instanceID>xmp.iid:f43aca78-35a7-444e-a117-79c5aaca0f1e</stEvt:instanceID>
                  <stEvt:when>2023-05-04T19:57:03+01:00</stEvt:when>
                  <stEvt:softwareAgent>Adobe Audition 23.3 (Windows)</stEvt:softwareAgent>
                  <stEvt:changed>/metadata</stEvt:changed>
               </rdf:li>
               <rdf:li rdf:parseType="Resource">
                  <stEvt:action>saved</stEvt:action>
                  <stEvt:instanceID>xmp.iid:2a6efb6e-8ca2-eb48-a57e-98e4a5e28053</stEvt:instanceID>
                  <stEvt:when>2023-05-04T19:57:03+01:00</stEvt:when>
                  <stEvt:softwareAgent>Adobe Audition 23.3 (Windows)</stEvt:softwareAgent>
                  <stEvt:changed>/</stEvt:changed>
               </rdf:li>
               <rdf:li rdf:parseType="Resource">
                  <stEvt:action>saved</stEvt:action>
                  <stEvt:instanceID>xmp.iid:c1067037-03c1-c342-a9ef-c7afdbc1f24c</stEvt:instanceID>
                  <stEvt:when>2023-05-05T01:01:17+01:00</stEvt:when>
                  <stEvt:softwareAgent>Adobe Audition 23.3 (Windows)</stEvt:softwareAgent>
                  <stEvt:changed>/metadata</stEvt:changed>
               </rdf:li>
               <rdf:li rdf:parseType="Resource">
                  <stEvt:action>saved</stEvt:action>
                  <stEvt:instanceID>xmp.iid:caa43220-fdb1-684f-a3e9-c97f624e42af</stEvt:instanceID>
                  <stEvt:when>2023-05-05T01:01:17+01:00</stEvt:when>
                  <stEvt:softwareAgent>Adobe Audition 23.3 (Windows)</stEvt:softwareAgent>
                  <stEvt:changed>/</stEvt:changed>
               </rdf:li>
               <rdf:li rdf:parseType="Resource">
                  <stEvt:action>saved</stEvt:action>
                  <stEvt:instanceID>xmp.iid:ae92edff-8490-8144-ad4e-64aaf683bd21</stEvt:instanceID>
                  <stEvt:when>2023-05-25T23:13:44+01:00</stEvt:when>
                  <stEvt:softwareAgent>Adobe Audition 23.3 (Windows)</stEvt:softwareAgent>
                  <stEvt:changed>/metadata</stEvt:changed>
               </rdf:li>
               <rdf:li rdf:parseType="Resource">
                  <stEvt:action>saved</stEvt:action>
                  <stEvt:instanceID>xmp.iid:bf62da6f-3c31-1b40-860e-722a69688231</stEvt:instanceID>
                  <stEvt:when>2023-05-25T23:13:44+01:00</stEvt:when>
                  <stEvt:softwareAgent>Adobe Audition 23.3 (Windows)</stEvt:softwareAgent>
                  <stEvt:changed>/</stEvt:changed>
               </rdf:li>
               <rdf:li rdf:parseType="Resource">
                  <stEvt:action>saved</stEvt:action>
                  <stEvt:instanceID>xmp.iid:c4f9b171-0178-8c4c-bf7c-08c2179b11bd</stEvt:instanceID>
                  <stEvt:when>2023-05-28T23:22:26+01:00</stEvt:when>
                  <stEvt:softwareAgent>Adobe Audition 23.3 (Windows)</stEvt:softwareAgent>
                  <stEvt:changed>/metadata</stEvt:changed>
               </rdf:li>
               <rdf:li rdf:parseType="Resource">
                  <stEvt:action>saved</stEvt:action>
                  <stEvt:instanceID>xmp.iid:7eb65642-0aca-524e-98b5-ce10bb550901</stEvt:instanceID>
                  <stEvt:when>2023-05-28T23:22:26+01:00</stEvt:when>
                  <stEvt:softwareAgent>Adobe Audition 23.3 (Windows)</stEvt:softwareAgent>
                  <stEvt:changed>/</stEvt:changed>
               </rdf:li>
               <rdf:li rdf:parseType="Resource">
                  <stEvt:action>saved</stEvt:action>
                  <stEvt:instanceID>xmp.iid:70b90cdb-1ebd-5949-b86b-2efad926b233</stEvt:instanceID>
                  <stEvt:when>2023-05-30T22:50:53+01:00</stEvt:when>
                  <stEvt:softwareAgent>Adobe Audition 23.3 (Windows)</stEvt:softwareAgent>
                  <stEvt:changed>/metadata</stEvt:changed>
               </rdf:li>
               <rdf:li rdf:parseType="Resource">
                  <stEvt:action>saved</stEvt:action>
                  <stEvt:instanceID>xmp.iid:ea785ab5-6e07-cd41-a2aa-78e07b5e54f1</stEvt:instanceID>
                  <stEvt:when>2023-05-30T22:50:53+01:00</stEvt:when>
                  <stEvt:softwareAgent>Adobe Audition 23.3 (Windows)</stEvt:softwareAgent>
                  <stEvt:changed>/</stEvt:changed>
               </rdf:li>
            </rdf:Seq>
         </xmpMM:History>
         <xmpMM:DerivedFrom rdf:parseType="Resource">
            <stRef:instanceID>xmp.iid:70b90cdb-1ebd-5949-b86b-2efad926b233</stRef:instanceID>
            <stRef:documentID>xmp.did:7eb65642-0aca-524e-98b5-ce10bb550901</stRef:documentID>
            <stRef:originalDocumentID>xmp.did:80c2dd83-006f-c248-8d79-d45425484b40</stRef:originalDocumentID>
         </xmpMM:DerivedFrom>
         <dc:format>application/xml</dc:format>
         <AEScart:Version>0101</AEScart:Version>
         <AEScart:PostTimer>
            <rdf:Seq>
               <rdf:li rdf:parseType="Resource">
                  <AEScart:Usage>EOD </AEScart:Usage>
                  <AEScart:Value>0</AEScart:Value>
               </rdf:li>
               <rdf:li rdf:parseType="Resource">
                  <AEScart:Usage>EOD </AEScart:Usage>
                  <AEScart:Value>0</AEScart:Value>
               </rdf:li>
               <rdf:li rdf:parseType="Resource">
                  <AEScart:Usage>EOD </AEScart:Usage>
                  <AEScart:Value>9470910</AEScart:Value>
               </rdf:li>
               <rdf:li rdf:parseType="Resource">
                  <AEScart:Usage>EOD </AEScart:Usage>
                  <AEScart:Value>13493060</AEScart:Value>
               </rdf:li>
               <rdf:li rdf:parseType="Resource">
                  <AEScart:Usage>EOD </AEScart:Usage>
                  <AEScart:Value>15757694</AEScart:Value>
               </rdf:li>
               <rdf:li rdf:parseType="Resource">
                  <AEScart:Usage/>
                  <AEScart:Value>4294967295</AEScart:Value>
               </rdf:li>
               <rdf:li rdf:parseType="Resource">
                  <AEScart:Usage/>
                  <AEScart:Value>4294967295</AEScart:Value>
               </rdf:li>
               <rdf:li rdf:parseType="Resource">
                  <AEScart:Usage/>
                  <AEScart:Value>4294967295</AEScart:Value>
               </rdf:li>
            </rdf:Seq>
         </AEScart:PostTimer>
         <xmpDM:Tracks>
            <rdf:Bag>
               <rdf:li rdf:parseType="Resource">
                  <xmpDM:trackName>CuePoint Markers</xmpDM:trackName>
                  <xmpDM:trackType>Cue</xmpDM:trackType>
                  <xmpDM:frameRate>f48000</xmpDM:frameRate>
               </rdf:li>
               <rdf:li rdf:parseType="Resource">
                  <xmpDM:trackName>CD Track Markers</xmpDM:trackName>
                  <xmpDM:trackType>Track</xmpDM:trackType>
                  <xmpDM:frameRate>f48000</xmpDM:frameRate>
               </rdf:li>
               <rdf:li rdf:parseType="Resource">
                  <xmpDM:trackName>Subclip Markers</xmpDM:trackName>
                  <xmpDM:trackType>InOut</xmpDM:trackType>
                  <xmpDM:frameRate>f48000</xmpDM:frameRate>
               </rdf:li>
            </rdf:Bag>
         </xmpDM:Tracks>
      </rdf:Description>
   </rdf:RDF>
</x:xmpmeta>
                                                                                                    
                                                                                                    
                                                                                                    
                                                                                                    
                                                                                                    
                                                                                                    
                                                                                                    
                                                                                                    
                                                                                                    
                                                                                                    
                                                                                                    
                                                                                                    
                                                                                                    
                                                                                                    
                                                                                                    
                                                                                                    
                                                                                                    
                                                                                                    
                                                                                                    
                                                                                                    
                           
<?xpacket end="w"?>]]></xmpMetadata>
    <clipGroups/>
    <metronome enabled="false" pattern="downBeat subdivision subdivision subdivision " soundSet="sticks">
      <metronomeTrack automationLaneOpenState="false" id="40000" index="0" select="false" visible="false">
        <trackParameters trackHeight="77" trackHue="-1" trackMinimized="false">
          <name>Metronome</name>
        </trackParameters>
        <trackAudioParameters audioChannelType="mono" automationMode="1" monitoring="false" recordArmed="false" solo="false" soloSafe="true">
          <trackOutput outputID="10000" type="trackID"/>
          <trackInput inputID="-1"/>
          <component componentGuid="a54c15fd-8099-4d6d-9634-b1e0ad8ed758" componentID="Audition.Fader" id="trackFader" name="volume" powered="true">
            <parameter index="0" name="volume" parameterValue="0.50118720531463623046875"/>
            <parameter index="1" name="static gain" parameterValue="1"/>
          </component>
          <component componentGuid="cee028a4-d9cd-4198-92dd-27fe560bbe4f" componentID="Audition.Mute" id="trackMute" name="Mute" powered="true">
            <parameter index="0" parameterValue="0"/>
            <parameter index="1" name="mute" parameterValue="0"/>
          </component>
          <component componentGuid="62d9fc96-eaea-425b-a6d9-0de8987f618b" componentID="Audition.StereoPanner" id="trackPan" name="StereoPanner" powered="true">
            <parameter index="0" name="Pan" parameterValue="0"/>
          </component>
          <component componentGuid="31824809-8cfd-4b91-a8f2-67e0b9e23d42" componentID="Audition.EQ" id="trackEQ" name="EQ" powered="false">
            <parameter index="0" name="Low Shelf Frequency" parameterValue="0.000834028352983295917510986328125"/>
            <parameter index="1" name="Low Shelf Gain" parameterValue="0.5"/>
            <parameter index="2" name="High Shelf Frequency" parameterValue="0.74979150295257568359375"/>
            <parameter index="3" name="High Shelf Gain" parameterValue="0.5"/>
            <parameter index="4" name="EQ Band 1 Center Frequency" parameterValue="0.00125104258768260478973388671875"/>
            <parameter index="5" name="EQ Band 1 Q" parameterValue="0.000199989997781813144683837890625"/>
            <parameter index="6" name="EQ Band 1 Gain" parameterValue="0.5"/>
            <parameter index="7" name="EQ Band 1 Enable" parameterValue="1"/>
            <parameter index="8" name="EQ Band 2 Center Frequency" parameterValue="0.0075062550604343414306640625"/>
            <parameter index="9" name="EQ Band 2 Q" parameterValue="0.000199989997781813144683837890625"/>
            <parameter index="10" name="EQ Band 2 Gain" parameterValue="0.5"/>
            <parameter index="11" name="EQ Band 2 Enable" parameterValue="1"/>
            <parameter index="12" name="EQ Band 3 Center Frequency" parameterValue="0.0325271077454090118408203125"/>
            <parameter index="13" name="EQ Band 3 Q" parameterValue="0.000199989997781813144683837890625"/>
            <parameter index="14" name="EQ Band 3 Gain" parameterValue="0.5"/>
            <parameter index="15" name="EQ Band 3 Enable" parameterValue="1"/>
            <parameter index="16" name="EQ Band 4 Center Frequency" parameterValue="0.13261051476001739501953125"/>
            <parameter index="17" name="EQ Band 4 Q" parameterValue="0.000199989997781813144683837890625"/>
            <parameter index="18" name="EQ Band 4 Gain" parameterValue="0.5"/>
            <parameter index="19" name="EQ Band 4 Enable" parameterValue="1"/>
            <parameter index="20" name="EQ Band 5 Center Frequency" parameterValue="0.532944142818450927734375"/>
            <parameter index="21" name="EQ Band 5 Q" parameterValue="0.000199989997781813144683837890625"/>
            <parameter index="22" name="EQ Band 5 Gain" parameterValue="0.5"/>
            <parameter index="23" name="EQ Band 5 Enable" parameterValue="1"/>
            <parameter index="24" name="Gain" parameterValue="0.666666686534881591796875"/>
            <parameter index="25" name="ConstantQ" parameterValue="1"/>
            <parameter index="26" name="Low Shelf Filter Order" parameterValue="0"/>
            <parameter index="27" name="High Shelf Filter Order" parameterValue="0"/>
            <parameter index="28" name="Ultra-Quiet Mode" parameterValue="0"/>
            <parameter index="29" name="Low Shelf Enable" parameterValue="1"/>
            <parameter index="30" name="High Shelf Enable" parameterValue="1"/>
            <parameter index="31" name="Original Sample Rate" parameterValue="0.25"/>
            <parameter index="32" name="EQ Band 1 Bandwidth" parameterValue="0.002499990165233612060546875"/>
            <parameter index="33" name="EQ Band 2 Bandwidth" parameterValue="0.0099999904632568359375"/>
            <parameter index="34" name="EQ Band 3 Bandwidth" parameterValue="0.0399999916553497314453125"/>
            <parameter index="35" name="EQ Band 4 Bandwidth" parameterValue="0.15999998152256011962890625"/>
            <parameter index="36" name="EQ Band 5 Bandwidth" parameterValue="0.63999998569488525390625"/>
            <parameter index="37" name="High-Pass Filter Enable" parameterValue="0"/>
            <parameter index="38" name="High-Pass Cutoff Frequency" parameterValue="0"/>
            <parameter index="39" name="High-Pass Slope" parameterValue="0.4000000059604644775390625"/>
            <parameter index="40" name="Low-Pass Filter Enable" parameterValue="0"/>
            <parameter index="41" name="Low-Pass Cutoff Frequency" parameterValue="0.833194315433502197265625"/>
            <parameter index="42" name="Low-Pass Slope" parameterValue="0.4000000059604644775390625"/>
            <parameter index="43" name="Bypass" parameterValue="0"/>
            <parameter index="44" name="LowGraphRange" parameterValue="1"/>
          </component>
        </trackAudioParameters>
        <editParameter parameterIndex="0" slotIndex="4294967280"/>
      </metronomeTrack>
    </metronome>
    <properties>
      <property key="EssentialSoundConfigurations">[{"Guid":"a8b40e3e-13e7-4c1f-b382-96058f1f691d","Name":"$$$/app/Presets/DefaultPresetName=(Default)","PresetData":{"ModeID":"ambience","Models":{"model_ducking":{},"model_loudness":{"DefaultLoudness":{"type":"float","value":-30},"LoudnessStandard":{"type":"std::uint32_t","value":0},"MaxLoudness":{"type":"float","value":-12},"MinLoudness":{"type":"float","value":-42}},"model_soundeffects":{"ReverbPresets":{"type":"tree::any","value":{"$$$/app/Presets/EssentialSound/ReverbPreset/LargeRoomAmbience=Large Room Ambience":{"type":"array::float","value":[0.051507499068975449,0.32432401180267334,0.29292899370193481,0.30000001192092896,0.20000000298023224,0,0.14285700023174286,0.40000000596046448,0.5,0.69999998807907104,0.30000001192092896,0.25125628709793091,0.03125]},"$$$/app/Presets/EssentialSound/ReverbPreset/OutsideAmbience=Outside Ambience":{"type":"array::float","value":[0.091708503663539886,0.043893899768590927,1,0.5,0.20000000298023224,0.80000001192092896,0.18367299437522888,1,0.5,0,0.80000001192092896,0.25125628709793091,0.03125]},"$$$/app/Presets/EssentialSound/ReverbPreset/RoomAmbience=Room Ambience":{"type":"array::float","value":[0.057788901031017303,0.44944900274276733,0.49494898319244385,0.89999997615814209,0.10000000149011612,0.15000000596046448,0.081632703542709351,0.40000000596046448,0.5,0.80000001192092896,0.20000000298023224,0.25125628709793091,0.03125]},"$$$/app/Presets/EssentialSound/ReverbPreset/WindEffect=Wind Effect":{"type":"array::float","value":[0.19597999751567841,0.6896899938583374,0.69696998596191406,0.25,0.5,0.5,0.23469400405883789,0.51999998092651367,0.5,0.75,0.25,0.25125628709793091,0.03125]}}}},"model_stereowidth":{},"model_volume":{"MaxGain":{"type":"float","value":15},"MinGain":{"type":"float","value":-60}}},"Version":1},"Type":"1c19ca71-c24c-49cd-8dd5-2cc46018507a","Version":1},{"Guid":"58dc27a8-6a2a-480c-bd0c-4b45fff346a6","Name":"$$$/app/Presets/DefaultPresetName=(Default)","PresetData":{"ModeID":"dialog","Models":{"model_clarity":{"EQPresets":{"type":"tree::any","value":{"$$$/app/Presets/EssentialSound/EQPreset/BackgroundVoice=Background Voice":{"type":"array::float","value":[0.12099699676036835,0.5,0.39240506291389465,0,0.5,0.5,0.5,0.5,0.5,0.47827938199043274,0.45772689580917358,0.45778733491897583,0.47946760058403015,0.5,0]},"$$$/app/Presets/EssentialSound/EQPreset/Intercom=Intercom":{"type":"array::float","value":[0.19432899355888367,0.5,1,0,0.071499988436698914,0.071499988436698914,0.071499988436698914,0.40238627791404724,0.48571401834487915,0.5,0.55155748128890991,0.59602576494216919,0.22246670722961426,0.071499988436698914,0]},"$$$/app/Presets/EssentialSound/EQPreset/LockedInTheTrunk=Locked in the Trunk":{"type":"array::float","value":[0.12099699676036835,0.5,0.79746836423873901,0,0.5,0.5,0.5,0.5,0.5,0.32846158742904663,0.15721426904201508,0.15721426904201508,0.15721426904201508,0.15721426904201508,0]},"$$$/app/Presets/EssentialSound/EQPreset/OldRadio=Old Radio":{"type":"array::float","value":[0.12099699676036835,0.5,0.79746836423873901,0,0.15721426904201508,0.15721426904201508,0.15721426904201508,0.28442040085792542,0.48315632343292236,0.36498492956161499,0.52853888273239136,0.43511500954627991,0.27154684066772461,0.15721426904201508,0]},"$$$/app/Presets/EssentialSound/EQPreset/OnTheTelephone=On the Telephone":{"type":"array::float","value":[0.12099699676036835,0.5,0.39240506291389465,0,0.32864287495613098,0.32864287495613098,0.32864287495613098,0.32864287495613098,0.48571401834487915,0.53071397542953491,0.53071397542953491,0.48357096314430237,0.32864287495613098,0.32864287495613098,0]},"$$$/app/Presets/EssentialSound/EQPreset/OutsideOfTheRoom=Outside of the Room":{"type":"array::float","value":[0.12099699676036835,0.5,0.79746836423873901,0,0.42539370059967041,0.47865453362464905,0.5,0.5,0.48571401834487915,0.40073278546333313,0.25656309723854065,0.15721426904201508,0.15721426904201508,0.15721426904201508,0]},"$$$/app/Presets/EssentialSound/EQPreset/PodcastVoice=Podcast Voice":{"type":"array::float","value":[0.12099699676036835,0.5,0.39240506291389465,0,0.5,0.5,0.5,0.51789408922195435,0.50770342350006104,0.5,0.51789408922195435,0.528114914894104,0.5102812647819519,0.5,0]},"$$$/app/Presets/EssentialSound/EQPreset/SubtleBoostFemale=Subtle Boost (Female)":{"type":"array::float","value":[0.096553400158882141,0.5,0.29113924503326416,0,0.5,0.5,0.5,0.5,0.5,0.51933407783508301,0.54642897844314575,0.52706766128540039,0.5,0.5,0]},"$$$/app/Presets/EssentialSound/EQPreset/SubtleBoostMale=Subtle Boost (Male)":{"type":"array::float","value":[0.096553400158882141,0.5,0.29113924503326416,0,0.5,0.5,0.5,0.5,0.5,0.5135338306427002,0.54642897844314575,0.51933407783508301,0.5,0.5,0]},"$$$/app/Presets/EssentialSound/EQPreset/ThatPublicRadioSound=That Public Radio Sound":{"type":"array::float","value":[0.12099699676036835,0.5,0.79746836423873901,0,0.15721426904201508,0.15721426904201508,0.15721426904201508,0.36334344744682312,0.49468311667442322,0.5,0.5,0.5,0.5,0.5,0]},"$$$/app/Presets/EssentialSound/EQPreset/VocalPresence=Vocal Presence":{"type":"array::float","value":[0.096553400158882141,0.5,0.32489451766014099,0,0.3572143018245697,0.3572143018245697,0.46428570151329041,0.47857141494750977,0.4763694703578949,0.49570354819297791,0.55924957990646362,0.56523394584655762,0.50859290361404419,0.46992480754852295,0]}}}},"model_loudness":{"DefaultLoudness":{"type":"float","value":-23},"LoudnessStandard":{"type":"std::uint32_t","value":0},"MaxLoudness":{"type":"float","value":-12},"MinLoudness":{"type":"float","value":-42}},"model_restoration":{"ReduceNoiseMaxSetting":{"type":"array::float","value":[1,0,0,0,0]},"ReduceNoiseMinSetting":{"type":"array::float","value":[0,0,0,0,0]},"ReduceReverbMaxSetting":{"type":"array::float","value":[1,0,1,0,0]},"ReduceReverbMinSetting":{"type":"array::float","value":[0,0,1,0,0]},"ReduceRumbleMaxSetting":{"type":"array::float","value":[1,0.061583578586578369,0.375,0,0,0.00083333335351198912,1,0,1,0.0390625,0.00083408987848088145,0,0.0041666668839752674,0.00022554649331141263,0.0046875001862645149,0.75,0.0052083334885537624,0.75,1,0.75,0.0040520834736526012,0.75,0.0042629167437553406,0.00022554649331141263,0.0064883334562182426,0.00022554649331141263,0.006866666954010725,0.75,0.0071704164147377014,0.00022554649331141263,0.01041458360850811,0.00022554649331141263,0.010900000110268593,0.75,0.011407917365431786,0.00022554649331141263,0.015606249682605267,0.00022554649331141263,0.016333334147930145,0.75,0.017094582319259644,0.00022554649331141263,0.026243748143315315,0.00022554649331141263,0.0274666678160429,0.75,0.028746666386723518,0.00022554649331141263,0.041658751666545868,0.00022554649331141263,0.043600000441074371,0.75,0.045631669461727142,0.00022554649331141263,0.062424581497907639,0.00022554649331141263,0.065333336591720581,0.75,0.068377502262592316,0.00022554649331141263,0.10497540980577469,0.00022554649331141263,0.1098666712641716,0.75,0.11498583108186722,0.00022554649331141263,0.16663584113121033,0.00022554649331141263,0.17440000176429749,0.75,0.18252624571323395,0.00022554649331141263,0.91874998807907104,0.00022554649331141263,1,0.00022554649331141263,0,0,0,0,0,0,0,0,0,0,0,0,0,0,0,0,0,0,0,0,0,0,0,0,0,0,0,0,0,0,0,0,0,0,0,0,0,0,0,0,0,0,0,0,0,0,0,0,0,0,0,0,0,0,0,0,0,0,0,0,0,0,0,0,0,0,0,0,0,0,0,0,0,0,0,0,0,0,0,0,0,0,0,0,0,0,0,0,0,0,0,0,0,0,0,0,0,0,0,0,0,0,0,0,0,0,0,0,0,0,0,0,0,0,0,0,0,0,0,0,0,0,0,0,0,0,0,0,0,0,0,0,0,0,0,0,0,0,0,0,0,0,0,0,0,0,0,0,0,0,0,0,0,0,0,0,0,0,0,0,0,0,0,0,0,0,0,0,0,0,0,0,0,0,0,0,0,0,0,0,0,0,0,0,0,0,0,0,0,0]},"ReduceRumbleMinSetting":{"type":"array::float","value":[1,0.061583578586578369,0.375,0,0,0.00083333335351198912,1,0,1,0.0390625,0.00083408987848088145,0.75,0.0041666668839752674,0.75,0.0046875001862645149,0.75,0.0052083334885537624,0.75,1,0.75,0.91874998807907104,0.61237245798110962,1,0.61237245798110962,0,0,0,0,0,0,0,0,0,0,0,0,0,0,0,0,0,0,0,0,0,0,0,0,0,0,0,0,0,0,0,0,0,0,0,0,0,0,0,0,0,0,0,0,0,0,0,0,0,0,0,0,0,0,0,0,0,0,0,0,0,0,0,0,0,0,0,0,0,0,0,0,0,0,0,0,0,0,0,0,0,0,0,0,0,0,0,0,0,0,0,0,0,0,0,0,0,0,0,0,0,0,0,0,0,0,0,0,0,0,0,0,0,0,0,0,0,0,0,0,0,0,0,0,0,0,0,0,0,0,0,0,0,0,0,0,0,0,0,0,0,0,0,0,0,0,0,0,0,0,0,0,0,0,0,0,0,0,0,0,0,0,0,0,0,0,0,0,0,0,0,0,0,0,0,0,0,0,0,0,0,0,0,0,0,0,0,0,0,0,0,0,0,0,0,0,0,0,0,0,0,0,0,0,0,0,0,0,0,0,0,0,0,0,0,0,0,0,0,0,0,0,0,0,0,0,0,0,0,0,0,0,0,0,0,0,0,0,0,0,0,0]},"ReduceSibilanceMaxSetting":{"type":"array::float","value":[0.5,0.19983997941017151,0.18367347121238708,0.26086956262588501,0.52702701091766357,0,1,0,0,0,0,0.75,1,1,0.40000000596046448]},"ReduceSibilanceMinSetting":{"type":"array::float","value":[0.875,0.19983997941017151,0.18367347121238708,0.19130434095859528,0.25675675272941589,0,1,0,0,0,0,0.75,1,1,0.40000000596046448]}},"model_soundeffects":{"ReverbPresets":{"type":"tree::any","value":{"$$$/app/Presets/EssentialSound/ReverbPreset/Auditorium=Auditorium":{"type":"array::float","value":[0.013047545216977596,0.15895412862300873,1,0.89999997615814209,0,0.52007436752319336,0.41663265228271484,0.46000000834465027,0.5,0.73000001907348633,0.15999999642372131,0.75376886129379272,0.03125]},"$$$/app/Presets/EssentialSound/ReverbPreset/Church=Church":{"type":"array::float","value":[0.032663315534591675,0.39939939975738525,0.79797977209091187,0.25,0.5,0.5,0.2297959178686142,0.72000002861022949,0.5,0.62999999523162842,0.87999999523162842,0.25125628709793091,0.03125]},"$$$/app/Presets/EssentialSound/ReverbPreset/LargeReflectiveRoom=Large Reflective Room":{"type":"array::float","value":[0.0074449013918638229,0.098988421261310577,0.79890537261962891,0.89999997615814209,0.10000000149011612,0.40110713243484497,0.060284845530986786,0.27522978186607361,0.5,0.73000001907348633,0.31999999284744263,0.25125628709793091,0.03125]},"$$$/app/Presets/EssentialSound/ReverbPreset/OutsideTheClub=Outside the Club":{"type":"array::float","value":[0.020615793764591217,0.050136558711528778,0.69696998596191406,0.25,0.094355784356594086,0.22242647409439087,0.1071428582072258,0.2800000011920929,0.5,0.73000001907348633,0.46000000834465027,0.25125628709793091,0.03125]},"$$$/app/Presets/EssentialSound/ReverbPreset/SmallDryRoom=Small Dry Room":{"type":"array::float","value":[0.24623115360736847,0.69975000619888306,0.29292899370193481,0.40000000596046448,0.20000000298023224,0.40000000596046448,0.039285715669393539,0.10000000149011612,0.5,1,0.5,0.75376886129379272,0.03125]},"$$$/app/Presets/EssentialSound/ReverbPreset/ThickenVoice=Thicken Voice":{"type":"array::float","value":[0.19597999751567841,0.23931467533111572,0.69696998596191406,0.25,0.5,0.53999996185302734,0.020408162847161293,0.20945435762405396,0.5,1,0.34999999403953552,0.25125628709793091,0.03125]},"$$$/app/Presets/EssentialSound/ReverbPreset/WarmRoom=Warm Room":{"type":"array::float","value":[0.020100502297282219,0.074074074625968933,0.49494948983192444,0.40000000596046448,0.74960309267044067,0.40000000596046448,0.1239795908331871,0.67000001668930054,0.5,0.85000002384185791,0.56000000238418579,0.25125628709793091,0.03125]},"$$$/app/Presets/EssentialSound/ReverbPreset/WarmVoice=Warm Voice":{"type":"array::float","value":[0.19597989320755005,0.89989989995956421,0,0.40000000596046448,0.20000000298023224,0.40000000596046448,0.10204081982374191,0.090000003576278687,0.5,1,0.30000001192092896,0.25125628709793091,0.03125]}}}},"model_volume":{"MaxGain":{"type":"float","value":15},"MinGain":{"type":"float","value":-60}}},"Version":2},"Type":"1c19ca71-c24c-49cd-8dd5-2cc46018507a","Version":1},{"Guid":"353811fa-4179-435e-8e5e-23028ba15a7a","Name":"$$$/app/Presets/DefaultPresetName=(Default)","PresetData":{"ModeID":"generic","Models":{"model_loudness":{"DefaultLoudness":{"type":"float","value":-24},"LoudnessStandard":{"type":"std::uint32_t","value":0},"MaxLoudness":{"type":"float","value":-12},"MinLoudness":{"type":"float","value":-42}},"model_volume":{"MaxGain":{"type":"float","value":15},"MinGain":{"type":"float","value":-60}}},"Version":1},"Type":"1c19ca71-c24c-49cd-8dd5-2cc46018507a","Version":1},{"Guid":"31ba96a6-5d3e-4d89-b1e1-1dbe3c055d0c","Name":"$$$/app/Presets/DefaultPresetName=(Default)","PresetData":{"ModeID":"music","Models":{"model_ducking":{},"model_duration":{},"model_loudness":{"DefaultLoudness":{"type":"float","value":-25},"LoudnessStandard":{"type":"std::uint32_t","value":0},"MaxLoudness":{"type":"float","value":-12},"MinLoudness":{"type":"float","value":-42}},"model_volume":{"MaxGain":{"type":"float","value":15},"MinGain":{"type":"float","value":-60}}},"Version":1},"Type":"1c19ca71-c24c-49cd-8dd5-2cc46018507a","Version":1},{"Guid":"cea63332-1adc-44a9-a6eb-5490f965859b","Name":"$$$/app/Presets/DefaultPresetName=(Default)","PresetData":{"ModeID":"sfx","Models":{"model_loudness":{"DefaultLoudness":{"type":"float","value":-21},"LoudnessStandard":{"type":"std::uint32_t","value":0},"MaxLoudness":{"type":"float","value":-12},"MinLoudness":{"type":"float","value":-42}},"model_pan":{},"model_soundeffects":{"ReverbPresets":{"type":"tree::any","value":{"$$$/app/Presets/EssentialSound/ReverbPreset/HeavyReverb=Heavy Reverb":{"type":"array::float","value":[0.13316600024700165,0.29929900169372559,1,0.95999997854232788,0.85000002384185791,0.5,0.51530599594116211,0.30000001192092896,0.5,0.5,0.5,0.25125628709793091,0.0625]},"$$$/app/Presets/EssentialSound/ReverbPreset/LightReverb=Light Reverb":{"type":"array::float","value":[0.095477402210235596,0.29929900169372559,0.090909101068973541,1,1,0.80000001192092896,0.22449000179767609,0.60000002384185791,0.5,0.69999998807907104,0.30000001192092896,0.25125628709793091,0.0625]},"$$$/app/Presets/EssentialSound/ReverbPreset/OutsideReverb=Outside Reverb":{"type":"array::float","value":[0.091708503663539886,0.043893899768590927,1,0.5,0.20000000298023224,0.80000001192092896,0.18367299437522888,1,0.5,0,0.80000001192092896,0.25125628709793091,0.0625]},"$$$/app/Presets/EssentialSound/ReverbPreset/RoomReverb=Room Reverb":{"type":"array::float","value":[0.057788901031017303,0.44944900274276733,0.49494898319244385,0.89999997615814209,0.10000000149011612,0.15000000596046448,0.081632703542709351,0.40000000596046448,0.5,0.80000001192092896,0.20000000298023224,0.25125628709793091,0.0625]}}}},"model_volume":{"MaxGain":{"type":"float","value":15},"MinGain":{"type":"float","value":-60}}},"Version":1},"Type":"1c19ca71-c24c-49cd-8dd5-2cc46018507a","Version":1}]</property>
    </properties>
  </session>

  <files>
    <file absolutePath="F:\UnityProject_Fast\TripleJam\Assets\Resources\Meta Narration\Narrator\Narrator\Conformed Files\Narrator 48000 1.wav" id="0" importerPrivateSettings="Compression:0:0;LargeFileSupport:0:0;SampleType:0:40;" mediaHandler="AmioWav" recoveryID="0971cb26-dee4-4572-ba8e-3c204ac168d7" relativePath="../Conformed Files/Narrator 48000 1.wav"/>
    <file absolutePath="F:\UnityProject_Fast\TripleJam\Assets\Resources\Meta Narration\Narrator\Narrator\Conformed Files\Narrator_Studio 48000 2.wav" id="1" importerPrivateSettings="Compression:0:0;LargeFileSupport:0:0;SampleType:0:40;" mediaHandler="AmioWav" recoveryID="0e9c4eb5-c29c-4bf8-8626-9458d140b399" relativePath="../Conformed Files/Narrator_Studio 48000 2.wav"/>
    <file absolutePath="F:\UnityProject_Fast\TripleJam\Assets\Resources\Meta Narration\Narrator\Narrator\Conformed Files\Narrator_BSOD 48000 1.wav" id="2" importerPrivateSettings="Compression:0:0;LargeFileSupport:0:0;SampleType:0:40;" mediaHandler="AmioWav" recoveryID="7cc7d55a-6f9a-4da5-b586-dfcbdc4c2f13" relativePath="../Conformed Files/Narrator_BSOD 48000 1.wav"/>
    <file absolutePath="F:\UnityProject_Fast\TripleJam\Assets\Resources\Meta Narration\Narrator\Narrator\Conformed Files\Narrator_Motherboard 48000 1.wav" id="3" mediaHandler="AmioWav" recoveryID="70dad700-92b5-4bd0-b066-401e34d004f8" relativePath="../Conformed Files/Narrator_Motherboard 48000 1.wav"/>
  </files>

  <audioDevice inputID="22222222-2222-2222-2222-22222222" outputID="11111111-1111-1111-1111-11111111">
    <inputPort id="1" name="Default Stereo Input"/>
    <inputPort id="2" name="[01M] System Default - Microphone (Razer Seiren X) 1"/>
    <inputPort id="3" name="[02M] System Default - Microphone (Razer Seiren X) 2"/>
    <inputPort id="4" name="[01S] System Default - Microphone (Razer Seiren X) 1"/>
    <outputPort id="1" name="Default Output"/>
    <outputPort id="2" name="[01M] System Default - Speakers (Realtek High Definition Audio) 1"/>
    <outputPort id="3" name="[02M] System Default - Speakers (Realtek High Definition Audio) 2"/>
    <outputPort id="4" name="Default Stereo Output"/>
    <outputPort id="5" name="[01S] System Default - Speakers (Realtek High Definition Audio) 1"/>
    <outputPort id="6" name="Default Surround Output"/>
  </audioDevice>

</sesx>
